<mxfile modified="2023-10-07T14:03:58.997Z" host="app.diagrams.net" agent="Mozilla/5.0 (Windows NT 10.0; Win64; x64) AppleWebKit/537.36 (KHTML, like Gecko) Chrome/117.0.0.0 Safari/537.36" etag="BLEUwgSqozwo41yz9p_4" version="21.7.5" type="github">
  <diagram id="WI9T0HZ2pTsCkuznbFz-" name="Page-1">
    <mxGraphModel dx="2261" dy="758" grid="1" gridSize="10" guides="1" tooltips="1" connect="1" arrows="1" fold="1" page="1" pageScale="1" pageWidth="827" pageHeight="1169" math="0" shadow="0">
      <root>
        <mxCell id="0" />
        <mxCell id="1" parent="0" />
        <mxCell id="Oi9bZ2Bt2lVT0VfedK1E-7" value="" style="rounded=0;whiteSpace=wrap;html=1;fillColor=#99FFFF;strokeColor=none;fontColor=#333333;" vertex="1" parent="1">
          <mxGeometry x="30" y="589.5" width="90" height="310.5" as="geometry" />
        </mxCell>
        <mxCell id="yIlqXNv4PA9Dnh1hxRCn-53" style="edgeStyle=elbowEdgeStyle;rounded=0;orthogonalLoop=1;jettySize=auto;elbow=vertical;html=1;entryX=-0.054;entryY=0.532;entryDx=0;entryDy=0;entryPerimeter=0;startArrow=classic;startFill=1;strokeColor=#808080;" parent="1" source="yIlqXNv4PA9Dnh1hxRCn-51" target="yIlqXNv4PA9Dnh1hxRCn-25" edge="1">
          <mxGeometry relative="1" as="geometry" />
        </mxCell>
        <mxCell id="yIlqXNv4PA9Dnh1hxRCn-44" style="edgeStyle=orthogonalEdgeStyle;rounded=0;orthogonalLoop=1;jettySize=auto;html=1;exitX=-0.011;exitY=0.511;exitDx=0;exitDy=0;exitPerimeter=0;strokeColor=#808080;" parent="1" source="yIlqXNv4PA9Dnh1hxRCn-23" edge="1">
          <mxGeometry relative="1" as="geometry">
            <mxPoint x="89" y="193.5" as="targetPoint" />
          </mxGeometry>
        </mxCell>
        <mxCell id="yIlqXNv4PA9Dnh1hxRCn-45" style="edgeStyle=elbowEdgeStyle;rounded=0;orthogonalLoop=1;jettySize=auto;html=1;entryX=-0.063;entryY=0.491;entryDx=0;entryDy=0;entryPerimeter=0;strokeColor=#808080;elbow=vertical;exitX=1.02;exitY=0.514;exitDx=0;exitDy=0;exitPerimeter=0;" parent="1" source="yIlqXNv4PA9Dnh1hxRCn-23" target="yIlqXNv4PA9Dnh1hxRCn-24" edge="1">
          <mxGeometry relative="1" as="geometry" />
        </mxCell>
        <mxCell id="yIlqXNv4PA9Dnh1hxRCn-47" style="edgeStyle=elbowEdgeStyle;rounded=0;orthogonalLoop=1;jettySize=auto;html=1;elbow=vertical;startArrow=classic;startFill=1;strokeColor=#808080;" parent="1" edge="1">
          <mxGeometry relative="1" as="geometry">
            <mxPoint x="395" y="245.5" as="sourcePoint" />
            <mxPoint x="514" y="245.5" as="targetPoint" />
          </mxGeometry>
        </mxCell>
        <mxCell id="yIlqXNv4PA9Dnh1hxRCn-54" style="edgeStyle=elbowEdgeStyle;rounded=0;orthogonalLoop=1;jettySize=auto;elbow=vertical;html=1;exitX=1.026;exitY=0.463;exitDx=0;exitDy=0;exitPerimeter=0;strokeColor=#808080;" parent="1" edge="1">
          <mxGeometry relative="1" as="geometry">
            <mxPoint x="-36.999999999999886" y="784.0000000000001" as="sourcePoint" />
            <mxPoint x="19.33000000000004" y="784.35" as="targetPoint" />
          </mxGeometry>
        </mxCell>
        <mxCell id="yIlqXNv4PA9Dnh1hxRCn-55" style="edgeStyle=elbowEdgeStyle;rounded=0;orthogonalLoop=1;jettySize=auto;elbow=vertical;html=1;exitX=-0.032;exitY=0.518;exitDx=0;exitDy=0;exitPerimeter=0;entryX=0.5;entryY=1;entryDx=0;entryDy=0;strokeColor=#808080;" parent="1" source="yIlqXNv4PA9Dnh1hxRCn-26" target="yIlqXNv4PA9Dnh1hxRCn-51" edge="1">
          <mxGeometry relative="1" as="geometry">
            <Array as="points">
              <mxPoint x="144" y="363.5" />
            </Array>
          </mxGeometry>
        </mxCell>
        <mxCell id="yIlqXNv4PA9Dnh1hxRCn-56" style="edgeStyle=elbowEdgeStyle;rounded=0;orthogonalLoop=1;jettySize=auto;elbow=vertical;html=1;startArrow=classic;startFill=1;strokeColor=#808080;" parent="1" edge="1">
          <mxGeometry relative="1" as="geometry">
            <mxPoint x="369" y="473.5" as="sourcePoint" />
            <mxPoint x="369" y="258.5" as="targetPoint" />
          </mxGeometry>
        </mxCell>
        <mxCell id="yIlqXNv4PA9Dnh1hxRCn-48" style="edgeStyle=elbowEdgeStyle;rounded=0;orthogonalLoop=1;jettySize=auto;html=1;entryX=0.005;entryY=0.343;entryDx=0;entryDy=0;entryPerimeter=0;elbow=vertical;startArrow=classic;startFill=1;strokeColor=#808080;" parent="1" target="yIlqXNv4PA9Dnh1hxRCn-33" edge="1">
          <mxGeometry relative="1" as="geometry">
            <mxPoint x="570" y="100.5" as="sourcePoint" />
          </mxGeometry>
        </mxCell>
        <mxCell id="yIlqXNv4PA9Dnh1hxRCn-49" style="edgeStyle=elbowEdgeStyle;rounded=0;orthogonalLoop=1;jettySize=auto;html=1;exitX=1;exitY=0.48;exitDx=0;exitDy=0;exitPerimeter=0;entryX=0.015;entryY=0.388;entryDx=0;entryDy=0;entryPerimeter=0;elbow=vertical;startArrow=classic;startFill=1;strokeColor=#808080;" parent="1" source="yIlqXNv4PA9Dnh1hxRCn-35" target="yIlqXNv4PA9Dnh1hxRCn-42" edge="1">
          <mxGeometry relative="1" as="geometry" />
        </mxCell>
        <mxCell id="yIlqXNv4PA9Dnh1hxRCn-50" style="edgeStyle=elbowEdgeStyle;rounded=0;orthogonalLoop=1;jettySize=auto;html=1;exitX=1.022;exitY=0.393;exitDx=0;exitDy=0;exitPerimeter=0;elbow=vertical;startArrow=classic;startFill=1;strokeColor=#808080;" parent="1" source="yIlqXNv4PA9Dnh1hxRCn-39" target="yIlqXNv4PA9Dnh1hxRCn-43" edge="1">
          <mxGeometry relative="1" as="geometry">
            <mxPoint x="631" y="523.5" as="sourcePoint" />
          </mxGeometry>
        </mxCell>
        <mxCell id="yIlqXNv4PA9Dnh1hxRCn-51" value="" style="rounded=0;whiteSpace=wrap;html=1;fillColor=#f5f5f5;strokeColor=none;fontColor=#333333;" parent="1" vertex="1">
          <mxGeometry x="34" y="193.5" width="110" height="120" as="geometry" />
        </mxCell>
        <mxCell id="yIlqXNv4PA9Dnh1hxRCn-22" value="On-Premises&amp;nbsp;&lt;br&gt;Users" style="aspect=fixed;html=1;perimeter=none;align=center;shadow=0;dashed=0;image;fontSize=12;image=img/lib/mscae/PersonWithFriend.svg;labelBackgroundColor=none;" parent="1" vertex="1">
          <mxGeometry x="64" y="217.25" width="50" height="49.5" as="geometry" />
        </mxCell>
        <mxCell id="yIlqXNv4PA9Dnh1hxRCn-23" value="Express&lt;br&gt;Route" style="aspect=fixed;html=1;perimeter=none;align=center;shadow=0;dashed=0;image;fontSize=12;image=img/lib/mscae/Express_Route.svg;" parent="1" vertex="1">
          <mxGeometry x="204" y="93.5" width="50" height="30.5" as="geometry" />
        </mxCell>
        <mxCell id="yIlqXNv4PA9Dnh1hxRCn-24" value="Virtual Network" style="aspect=fixed;html=1;perimeter=none;align=center;shadow=0;dashed=0;image;fontSize=12;image=img/lib/mscae/Virtual_Network.svg;labelBackgroundColor=none;" parent="1" vertex="1">
          <mxGeometry x="344" y="94.5" width="50" height="28.499999999999996" as="geometry" />
        </mxCell>
        <mxCell id="yIlqXNv4PA9Dnh1hxRCn-25" value="Load&lt;br&gt;Balancer" style="shadow=0;dashed=0;html=1;strokeColor=none;labelPosition=center;verticalLabelPosition=bottom;verticalAlign=top;align=center;shape=mxgraph.mscae.cloud.azure_automatic_load_balancer;fillColor=#0079D6;pointerEvents=1;labelBackgroundColor=#F5F5F5;fontColor=#000000;spacingTop=3;" parent="1" vertex="1">
          <mxGeometry x="344" y="225.5" width="50" height="33" as="geometry" />
        </mxCell>
        <mxCell id="yIlqXNv4PA9Dnh1hxRCn-26" value="VPN Gateway" style="aspect=fixed;html=1;perimeter=none;align=center;shadow=0;dashed=0;image;fontSize=12;image=img/lib/mscae/VPN_Gateway.svg;" parent="1" vertex="1">
          <mxGeometry x="206.5" y="337.5" width="45" height="50" as="geometry" />
        </mxCell>
        <mxCell id="yIlqXNv4PA9Dnh1hxRCn-27" value="Users" style="aspect=fixed;html=1;perimeter=none;align=center;shadow=0;dashed=0;image;fontSize=12;image=img/lib/mscae/PersonWithFriend.svg;" parent="1" vertex="1">
          <mxGeometry x="-110" y="745.5" width="50" height="49.5" as="geometry" />
        </mxCell>
        <mxCell id="yIlqXNv4PA9Dnh1hxRCn-33" value="Storage" style="shape=image;verticalLabelPosition=bottom;labelBackgroundColor=none;verticalAlign=top;aspect=fixed;imageAspect=0;image=data:image/svg+xml,PHN2ZyB4bWxuczpkYz0iaHR0cDovL3B1cmwub3JnL2RjL2VsZW1lbnRzLzEuMS8iIHhtbG5zOmNjPSJodHRwOi8vY3JlYXRpdmVjb21tb25zLm9yZy9ucyMiIHhtbG5zOnJkZj0iaHR0cDovL3d3dy53My5vcmcvMTk5OS8wMi8yMi1yZGYtc3ludGF4LW5zIyIgeG1sbnM6c3ZnPSJodHRwOi8vd3d3LnczLm9yZy8yMDAwL3N2ZyIgeG1sbnM9Imh0dHA6Ly93d3cudzMub3JnLzIwMDAvc3ZnIiB4bWxuczpzb2RpcG9kaT0iaHR0cDovL3NvZGlwb2RpLnNvdXJjZWZvcmdlLm5ldC9EVEQvc29kaXBvZGktMC5kdGQiIHhtbG5zOmlua3NjYXBlPSJodHRwOi8vd3d3Lmlua3NjYXBlLm9yZy9uYW1lc3BhY2VzL2lua3NjYXBlIiB2ZXJzaW9uPSIxLjEiIGlkPSJzdmc2NDIwMiIgaW5rc2NhcGU6dmVyc2lvbj0iMC45Mi4zICgyNDA1NTQ2LCAyMDE4LTAzLTExKSIgc29kaXBvZGk6ZG9jbmFtZT0iYXp1cmVfc3RvcmFnZV9henVyZV9maWxlcy5zdmciIHg9IjBweCIgeT0iMHB4IiB2aWV3Qm94PSIwIDAgNzUuNTIgNjQuMzQiIHhtbDpzcGFjZT0icHJlc2VydmUiIHdpZHRoPSI3NS41MTk5OTciIGhlaWdodD0iNjQuMzM5OTk2Ij48bWV0YWRhdGEgaWQ9Im1ldGFkYXRhMTg3OTUiPjxyZGY6UkRGPjxjYzpXb3JrIHJkZjphYm91dD0iIj48ZGM6Zm9ybWF0PmltYWdlL3N2Zyt4bWw8L2RjOmZvcm1hdD48ZGM6dHlwZSByZGY6cmVzb3VyY2U9Imh0dHA6Ly9wdXJsLm9yZy9kYy9kY21pdHlwZS9TdGlsbEltYWdlIi8+PGRjOnRpdGxlLz48L2NjOldvcms+PC9yZGY6UkRGPjwvbWV0YWRhdGE+PGRlZnMgaWQ9ImRlZnMxODc5MyIvPiYjeGE7PGZpbHRlciBpZD0iZmlsdGVyXzIiPiYjeGE7CTxmZUdhdXNzaWFuQmx1ciBpZD0iZmVHYXVzc2lhbkJsdXI2NDA5NSIgc3RkRGV2aWF0aW9uPSIyIi8+JiN4YTs8L2ZpbHRlcj4mI3hhOzxzb2RpcG9kaTpuYW1lZHZpZXcgYm9yZGVyY29sb3I9IiM2NjY2NjYiIGJvcmRlcm9wYWNpdHk9IjEiIGZpdC1tYXJnaW4tYm90dG9tPSIwIiBmaXQtbWFyZ2luLWxlZnQ9IjAiIGZpdC1tYXJnaW4tcmlnaHQ9IjAiIGZpdC1tYXJnaW4tdG9wPSIwIiBncmlkdG9sZXJhbmNlPSIxMCIgZ3VpZGV0b2xlcmFuY2U9IjEwIiBpZD0ibmFtZWR2aWV3NjQyMDQiIGlua3NjYXBlOmN1cnJlbnQtbGF5ZXI9InN2ZzY0MjAyIiBpbmtzY2FwZTpjeD0iLTQwLjc1NzY0MiIgaW5rc2NhcGU6Y3k9IjE0LjI0NTcwNSIgaW5rc2NhcGU6cGFnZW9wYWNpdHk9IjAiIGlua3NjYXBlOnBhZ2VzaGFkb3c9IjIiIGlua3NjYXBlOndpbmRvdy1oZWlnaHQ9IjEwMTciIGlua3NjYXBlOndpbmRvdy1tYXhpbWl6ZWQ9IjEiIGlua3NjYXBlOndpbmRvdy13aWR0aD0iMTkyMCIgaW5rc2NhcGU6d2luZG93LXg9Ii04IiBpbmtzY2FwZTp3aW5kb3cteT0iLTgiIGlua3NjYXBlOnpvb209IjMuNjYwMjg4NyIgb2JqZWN0dG9sZXJhbmNlPSIxMCIgcGFnZWNvbG9yPSIjZmZmZmZmIiBzaG93Z3JpZD0iZmFsc2UiPiYjeGE7CTwvc29kaXBvZGk6bmFtZWR2aWV3PiYjeGE7JiN4YTs8cGF0aCBpZD0icGF0aDY0MTA4IiBpbmtzY2FwZTpjb25uZWN0b3ItY3VydmF0dXJlPSIwIiBzdHlsZT0iZmlsbDojYTBhMWEyIiBkPSJtIDAsNjEuNDggYyAwLDEuNTEgMS4wNiwyLjg2IDIuODcsMi44NiBoIDY5Ljc4IGMgMS41MSwwIDIuODcsLTEuMDUgMi44NywtMi44NiB2IC01MCBIIDAgWiIvPiYjeGE7JiN4YTs8cGF0aCBpZD0icGF0aDY0MTE2IiBpbmtzY2FwZTpjb25uZWN0b3ItY3VydmF0dXJlPSIwIiBzdHlsZT0iZmlsbDojN2E3YTdhIiBkPSJNIDcyLjY1LDAgSCAyLjg3IEMgMS4wNiwwIDAsMS4zNSAwLDIuODcgdiA4LjYgSCA3NS41MiBWIDIuODcgQyA3NS41MiwxLjM1IDc0LjQ2LDAgNzIuNjUsMCBaIi8+JiN4YTsmI3hhOzxyZWN0IGlkPSJyZWN0NjQxMjQiIHg9IjI4LjM5OTk5NCIgeT0iMTYuNDU5OTk5IiBzdHlsZT0iZmlsbDojZmZmZmZmIiB3aWR0aD0iMTkuMDMwMDAxIiBoZWlnaHQ9IjExLjQ4Ii8+JiN4YTsmI3hhOzxyZWN0IGlkPSJyZWN0NjQxMzIiIHg9IjI4LjM5OTk5NCIgeT0iMzIuMDIiIHN0eWxlPSJmaWxsOiNmY2QxMTYiIHdpZHRoPSIxOS4wMzAwMDEiIGhlaWdodD0iMTEuNDgiLz4mI3hhOyYjeGE7PHJlY3QgaWQ9InJlY3Q2NDE0MCIgeD0iNTEuMDUwMDAzIiB5PSIzMi4wMiIgc3R5bGU9ImZpbGw6I2ZjZDExNiIgd2lkdGg9IjE5LjAzMDAwMSIgaGVpZ2h0PSIxMS40OCIvPiYjeGE7JiN4YTs8cmVjdCBpZD0icmVjdDY0MTQ4IiB4PSI1MS4wNTAwMDMiIHk9IjE2LjQ1OTk5OSIgc3R5bGU9ImZpbGw6I2ZmZmZmZiIgd2lkdGg9IjE5LjAzMDAwMSIgaGVpZ2h0PSIxMS40OCIvPiYjeGE7JiN4YTs8cmVjdCBpZD0icmVjdDY0MTU2IiB4PSI1LjczOTk5NzkiIHk9IjE2LjQ1OTk5OSIgc3R5bGU9ImZpbGw6I2ZmZmZmZiIgd2lkdGg9IjE5LjAzMDAwMSIgaGVpZ2h0PSIxMS40OCIvPiYjeGE7JiN4YTs8cmVjdCBpZD0icmVjdDY0MTY0IiB4PSI1LjczOTk5NzkiIHk9IjMyLjAyIiBzdHlsZT0iZmlsbDojZmZmZmZmIiB3aWR0aD0iMTkuMDMwMDAxIiBoZWlnaHQ9IjExLjQ4Ii8+JiN4YTsmI3hhOzxyZWN0IGlkPSJyZWN0NjQxNzIiIHg9IjUuNzM5OTk3OSIgeT0iNDcuNDMiIHN0eWxlPSJmaWxsOiNmY2QxMTYiIHdpZHRoPSIxOS4wMzAwMDEiIGhlaWdodD0iMTEuNDgiLz4mI3hhOyYjeGE7PHJlY3QgaWQ9InJlY3Q2NDE4MCIgeD0iMjguMzk5OTk0IiB5PSI0Ny40MyIgc3R5bGU9ImZpbGw6I2ZjZDExNiIgd2lkdGg9IjE5LjAzMDAwMSIgaGVpZ2h0PSIxMS40OCIvPiYjeGE7JiN4YTs8cmVjdCBpZD0icmVjdDY0MTg4IiB4PSI1MS4wNTAwMDMiIHk9IjQ3LjQzIiBzdHlsZT0iZmlsbDojZmNkMTE2IiB3aWR0aD0iMTkuMDMwMDAxIiBoZWlnaHQ9IjExLjQ4Ii8+JiN4YTsmI3hhOzxwYXRoIGlkPSJwYXRoNjQxOTYiIGlua3NjYXBlOmNvbm5lY3Rvci1jdXJ2YXR1cmU9IjAiIHN0eWxlPSJmaWxsOiNmZmZmZmY7ZmlsbC1vcGFjaXR5OjAuMiIgZD0iTSAyLjg3LDAgQyAxLjUxLDAgMCwxLjM2IDAsMi44NyB2IDExLjE4IDQuOTggNDIuNDUgYyAwLDEuNTEgMS41MSwyLjg2IDIuODcsMi44NiBIIDYuMDQgTCA2NS44NiwwIFoiLz4mI3hhOzwvc3ZnPg==;" parent="1" vertex="1">
          <mxGeometry x="694" y="84.25" width="58" height="49" as="geometry" />
        </mxCell>
        <mxCell id="yIlqXNv4PA9Dnh1hxRCn-41" value="SQL Server" style="group;labelPosition=center;verticalLabelPosition=bottom;align=center;verticalAlign=top;" parent="1" vertex="1" connectable="0">
          <mxGeometry x="514" y="331.75" width="67" height="61.5" as="geometry" />
        </mxCell>
        <mxCell id="yIlqXNv4PA9Dnh1hxRCn-39" value="" style="aspect=fixed;html=1;perimeter=none;align=center;shadow=0;dashed=0;image;fontSize=12;image=img/lib/mscae/Virtual_Machine.svg;" parent="yIlqXNv4PA9Dnh1hxRCn-41" vertex="1">
          <mxGeometry width="54" height="50" as="geometry" />
        </mxCell>
        <mxCell id="yIlqXNv4PA9Dnh1hxRCn-31" value="" style="aspect=fixed;html=1;perimeter=none;align=center;shadow=0;dashed=0;image;fontSize=12;image=img/lib/mscae/SQL_Database_generic.svg;" parent="yIlqXNv4PA9Dnh1hxRCn-41" vertex="1">
          <mxGeometry x="39" y="24.5" width="28" height="37" as="geometry" />
        </mxCell>
        <mxCell id="yIlqXNv4PA9Dnh1hxRCn-42" value="Storage" style="shape=image;verticalLabelPosition=bottom;labelBackgroundColor=none;verticalAlign=top;aspect=fixed;imageAspect=0;image=data:image/svg+xml,PHN2ZyB4bWxuczpkYz0iaHR0cDovL3B1cmwub3JnL2RjL2VsZW1lbnRzLzEuMS8iIHhtbG5zOmNjPSJodHRwOi8vY3JlYXRpdmVjb21tb25zLm9yZy9ucyMiIHhtbG5zOnJkZj0iaHR0cDovL3d3dy53My5vcmcvMTk5OS8wMi8yMi1yZGYtc3ludGF4LW5zIyIgeG1sbnM6c3ZnPSJodHRwOi8vd3d3LnczLm9yZy8yMDAwL3N2ZyIgeG1sbnM9Imh0dHA6Ly93d3cudzMub3JnLzIwMDAvc3ZnIiB4bWxuczpzb2RpcG9kaT0iaHR0cDovL3NvZGlwb2RpLnNvdXJjZWZvcmdlLm5ldC9EVEQvc29kaXBvZGktMC5kdGQiIHhtbG5zOmlua3NjYXBlPSJodHRwOi8vd3d3Lmlua3NjYXBlLm9yZy9uYW1lc3BhY2VzL2lua3NjYXBlIiB2ZXJzaW9uPSIxLjEiIGlkPSJzdmc2NDIwMiIgaW5rc2NhcGU6dmVyc2lvbj0iMC45Mi4zICgyNDA1NTQ2LCAyMDE4LTAzLTExKSIgc29kaXBvZGk6ZG9jbmFtZT0iYXp1cmVfc3RvcmFnZV9henVyZV9maWxlcy5zdmciIHg9IjBweCIgeT0iMHB4IiB2aWV3Qm94PSIwIDAgNzUuNTIgNjQuMzQiIHhtbDpzcGFjZT0icHJlc2VydmUiIHdpZHRoPSI3NS41MTk5OTciIGhlaWdodD0iNjQuMzM5OTk2Ij48bWV0YWRhdGEgaWQ9Im1ldGFkYXRhMTg3OTUiPjxyZGY6UkRGPjxjYzpXb3JrIHJkZjphYm91dD0iIj48ZGM6Zm9ybWF0PmltYWdlL3N2Zyt4bWw8L2RjOmZvcm1hdD48ZGM6dHlwZSByZGY6cmVzb3VyY2U9Imh0dHA6Ly9wdXJsLm9yZy9kYy9kY21pdHlwZS9TdGlsbEltYWdlIi8+PGRjOnRpdGxlLz48L2NjOldvcms+PC9yZGY6UkRGPjwvbWV0YWRhdGE+PGRlZnMgaWQ9ImRlZnMxODc5MyIvPiYjeGE7PGZpbHRlciBpZD0iZmlsdGVyXzIiPiYjeGE7CTxmZUdhdXNzaWFuQmx1ciBpZD0iZmVHYXVzc2lhbkJsdXI2NDA5NSIgc3RkRGV2aWF0aW9uPSIyIi8+JiN4YTs8L2ZpbHRlcj4mI3hhOzxzb2RpcG9kaTpuYW1lZHZpZXcgYm9yZGVyY29sb3I9IiM2NjY2NjYiIGJvcmRlcm9wYWNpdHk9IjEiIGZpdC1tYXJnaW4tYm90dG9tPSIwIiBmaXQtbWFyZ2luLWxlZnQ9IjAiIGZpdC1tYXJnaW4tcmlnaHQ9IjAiIGZpdC1tYXJnaW4tdG9wPSIwIiBncmlkdG9sZXJhbmNlPSIxMCIgZ3VpZGV0b2xlcmFuY2U9IjEwIiBpZD0ibmFtZWR2aWV3NjQyMDQiIGlua3NjYXBlOmN1cnJlbnQtbGF5ZXI9InN2ZzY0MjAyIiBpbmtzY2FwZTpjeD0iLTQwLjc1NzY0MiIgaW5rc2NhcGU6Y3k9IjE0LjI0NTcwNSIgaW5rc2NhcGU6cGFnZW9wYWNpdHk9IjAiIGlua3NjYXBlOnBhZ2VzaGFkb3c9IjIiIGlua3NjYXBlOndpbmRvdy1oZWlnaHQ9IjEwMTciIGlua3NjYXBlOndpbmRvdy1tYXhpbWl6ZWQ9IjEiIGlua3NjYXBlOndpbmRvdy13aWR0aD0iMTkyMCIgaW5rc2NhcGU6d2luZG93LXg9Ii04IiBpbmtzY2FwZTp3aW5kb3cteT0iLTgiIGlua3NjYXBlOnpvb209IjMuNjYwMjg4NyIgb2JqZWN0dG9sZXJhbmNlPSIxMCIgcGFnZWNvbG9yPSIjZmZmZmZmIiBzaG93Z3JpZD0iZmFsc2UiPiYjeGE7CTwvc29kaXBvZGk6bmFtZWR2aWV3PiYjeGE7JiN4YTs8cGF0aCBpZD0icGF0aDY0MTA4IiBpbmtzY2FwZTpjb25uZWN0b3ItY3VydmF0dXJlPSIwIiBzdHlsZT0iZmlsbDojYTBhMWEyIiBkPSJtIDAsNjEuNDggYyAwLDEuNTEgMS4wNiwyLjg2IDIuODcsMi44NiBoIDY5Ljc4IGMgMS41MSwwIDIuODcsLTEuMDUgMi44NywtMi44NiB2IC01MCBIIDAgWiIvPiYjeGE7JiN4YTs8cGF0aCBpZD0icGF0aDY0MTE2IiBpbmtzY2FwZTpjb25uZWN0b3ItY3VydmF0dXJlPSIwIiBzdHlsZT0iZmlsbDojN2E3YTdhIiBkPSJNIDcyLjY1LDAgSCAyLjg3IEMgMS4wNiwwIDAsMS4zNSAwLDIuODcgdiA4LjYgSCA3NS41MiBWIDIuODcgQyA3NS41MiwxLjM1IDc0LjQ2LDAgNzIuNjUsMCBaIi8+JiN4YTsmI3hhOzxyZWN0IGlkPSJyZWN0NjQxMjQiIHg9IjI4LjM5OTk5NCIgeT0iMTYuNDU5OTk5IiBzdHlsZT0iZmlsbDojZmZmZmZmIiB3aWR0aD0iMTkuMDMwMDAxIiBoZWlnaHQ9IjExLjQ4Ii8+JiN4YTsmI3hhOzxyZWN0IGlkPSJyZWN0NjQxMzIiIHg9IjI4LjM5OTk5NCIgeT0iMzIuMDIiIHN0eWxlPSJmaWxsOiNmY2QxMTYiIHdpZHRoPSIxOS4wMzAwMDEiIGhlaWdodD0iMTEuNDgiLz4mI3hhOyYjeGE7PHJlY3QgaWQ9InJlY3Q2NDE0MCIgeD0iNTEuMDUwMDAzIiB5PSIzMi4wMiIgc3R5bGU9ImZpbGw6I2ZjZDExNiIgd2lkdGg9IjE5LjAzMDAwMSIgaGVpZ2h0PSIxMS40OCIvPiYjeGE7JiN4YTs8cmVjdCBpZD0icmVjdDY0MTQ4IiB4PSI1MS4wNTAwMDMiIHk9IjE2LjQ1OTk5OSIgc3R5bGU9ImZpbGw6I2ZmZmZmZiIgd2lkdGg9IjE5LjAzMDAwMSIgaGVpZ2h0PSIxMS40OCIvPiYjeGE7JiN4YTs8cmVjdCBpZD0icmVjdDY0MTU2IiB4PSI1LjczOTk5NzkiIHk9IjE2LjQ1OTk5OSIgc3R5bGU9ImZpbGw6I2ZmZmZmZiIgd2lkdGg9IjE5LjAzMDAwMSIgaGVpZ2h0PSIxMS40OCIvPiYjeGE7JiN4YTs8cmVjdCBpZD0icmVjdDY0MTY0IiB4PSI1LjczOTk5NzkiIHk9IjMyLjAyIiBzdHlsZT0iZmlsbDojZmZmZmZmIiB3aWR0aD0iMTkuMDMwMDAxIiBoZWlnaHQ9IjExLjQ4Ii8+JiN4YTsmI3hhOzxyZWN0IGlkPSJyZWN0NjQxNzIiIHg9IjUuNzM5OTk3OSIgeT0iNDcuNDMiIHN0eWxlPSJmaWxsOiNmY2QxMTYiIHdpZHRoPSIxOS4wMzAwMDEiIGhlaWdodD0iMTEuNDgiLz4mI3hhOyYjeGE7PHJlY3QgaWQ9InJlY3Q2NDE4MCIgeD0iMjguMzk5OTk0IiB5PSI0Ny40MyIgc3R5bGU9ImZpbGw6I2ZjZDExNiIgd2lkdGg9IjE5LjAzMDAwMSIgaGVpZ2h0PSIxMS40OCIvPiYjeGE7JiN4YTs8cmVjdCBpZD0icmVjdDY0MTg4IiB4PSI1MS4wNTAwMDMiIHk9IjQ3LjQzIiBzdHlsZT0iZmlsbDojZmNkMTE2IiB3aWR0aD0iMTkuMDMwMDAxIiBoZWlnaHQ9IjExLjQ4Ii8+JiN4YTsmI3hhOzxwYXRoIGlkPSJwYXRoNjQxOTYiIGlua3NjYXBlOmNvbm5lY3Rvci1jdXJ2YXR1cmU9IjAiIHN0eWxlPSJmaWxsOiNmZmZmZmY7ZmlsbC1vcGFjaXR5OjAuMiIgZD0iTSAyLjg3LDAgQyAxLjUxLDAgMCwxLjM2IDAsMi44NyB2IDExLjE4IDQuOTggNDIuNDUgYyAwLDEuNTEgMS41MSwyLjg2IDIuODcsMi44NiBIIDYuMDQgTCA2NS44NiwwIFoiLz4mI3hhOzwvc3ZnPg==;" parent="1" vertex="1">
          <mxGeometry x="694" y="217.5" width="58" height="49" as="geometry" />
        </mxCell>
        <mxCell id="yIlqXNv4PA9Dnh1hxRCn-43" value="Storage" style="shape=image;verticalLabelPosition=bottom;labelBackgroundColor=none;verticalAlign=top;aspect=fixed;imageAspect=0;image=data:image/svg+xml,PHN2ZyB4bWxuczpkYz0iaHR0cDovL3B1cmwub3JnL2RjL2VsZW1lbnRzLzEuMS8iIHhtbG5zOmNjPSJodHRwOi8vY3JlYXRpdmVjb21tb25zLm9yZy9ucyMiIHhtbG5zOnJkZj0iaHR0cDovL3d3dy53My5vcmcvMTk5OS8wMi8yMi1yZGYtc3ludGF4LW5zIyIgeG1sbnM6c3ZnPSJodHRwOi8vd3d3LnczLm9yZy8yMDAwL3N2ZyIgeG1sbnM9Imh0dHA6Ly93d3cudzMub3JnLzIwMDAvc3ZnIiB4bWxuczpzb2RpcG9kaT0iaHR0cDovL3NvZGlwb2RpLnNvdXJjZWZvcmdlLm5ldC9EVEQvc29kaXBvZGktMC5kdGQiIHhtbG5zOmlua3NjYXBlPSJodHRwOi8vd3d3Lmlua3NjYXBlLm9yZy9uYW1lc3BhY2VzL2lua3NjYXBlIiB2ZXJzaW9uPSIxLjEiIGlkPSJzdmc2NDIwMiIgaW5rc2NhcGU6dmVyc2lvbj0iMC45Mi4zICgyNDA1NTQ2LCAyMDE4LTAzLTExKSIgc29kaXBvZGk6ZG9jbmFtZT0iYXp1cmVfc3RvcmFnZV9henVyZV9maWxlcy5zdmciIHg9IjBweCIgeT0iMHB4IiB2aWV3Qm94PSIwIDAgNzUuNTIgNjQuMzQiIHhtbDpzcGFjZT0icHJlc2VydmUiIHdpZHRoPSI3NS41MTk5OTciIGhlaWdodD0iNjQuMzM5OTk2Ij48bWV0YWRhdGEgaWQ9Im1ldGFkYXRhMTg3OTUiPjxyZGY6UkRGPjxjYzpXb3JrIHJkZjphYm91dD0iIj48ZGM6Zm9ybWF0PmltYWdlL3N2Zyt4bWw8L2RjOmZvcm1hdD48ZGM6dHlwZSByZGY6cmVzb3VyY2U9Imh0dHA6Ly9wdXJsLm9yZy9kYy9kY21pdHlwZS9TdGlsbEltYWdlIi8+PGRjOnRpdGxlLz48L2NjOldvcms+PC9yZGY6UkRGPjwvbWV0YWRhdGE+PGRlZnMgaWQ9ImRlZnMxODc5MyIvPiYjeGE7PGZpbHRlciBpZD0iZmlsdGVyXzIiPiYjeGE7CTxmZUdhdXNzaWFuQmx1ciBpZD0iZmVHYXVzc2lhbkJsdXI2NDA5NSIgc3RkRGV2aWF0aW9uPSIyIi8+JiN4YTs8L2ZpbHRlcj4mI3hhOzxzb2RpcG9kaTpuYW1lZHZpZXcgYm9yZGVyY29sb3I9IiM2NjY2NjYiIGJvcmRlcm9wYWNpdHk9IjEiIGZpdC1tYXJnaW4tYm90dG9tPSIwIiBmaXQtbWFyZ2luLWxlZnQ9IjAiIGZpdC1tYXJnaW4tcmlnaHQ9IjAiIGZpdC1tYXJnaW4tdG9wPSIwIiBncmlkdG9sZXJhbmNlPSIxMCIgZ3VpZGV0b2xlcmFuY2U9IjEwIiBpZD0ibmFtZWR2aWV3NjQyMDQiIGlua3NjYXBlOmN1cnJlbnQtbGF5ZXI9InN2ZzY0MjAyIiBpbmtzY2FwZTpjeD0iLTQwLjc1NzY0MiIgaW5rc2NhcGU6Y3k9IjE0LjI0NTcwNSIgaW5rc2NhcGU6cGFnZW9wYWNpdHk9IjAiIGlua3NjYXBlOnBhZ2VzaGFkb3c9IjIiIGlua3NjYXBlOndpbmRvdy1oZWlnaHQ9IjEwMTciIGlua3NjYXBlOndpbmRvdy1tYXhpbWl6ZWQ9IjEiIGlua3NjYXBlOndpbmRvdy13aWR0aD0iMTkyMCIgaW5rc2NhcGU6d2luZG93LXg9Ii04IiBpbmtzY2FwZTp3aW5kb3cteT0iLTgiIGlua3NjYXBlOnpvb209IjMuNjYwMjg4NyIgb2JqZWN0dG9sZXJhbmNlPSIxMCIgcGFnZWNvbG9yPSIjZmZmZmZmIiBzaG93Z3JpZD0iZmFsc2UiPiYjeGE7CTwvc29kaXBvZGk6bmFtZWR2aWV3PiYjeGE7JiN4YTs8cGF0aCBpZD0icGF0aDY0MTA4IiBpbmtzY2FwZTpjb25uZWN0b3ItY3VydmF0dXJlPSIwIiBzdHlsZT0iZmlsbDojYTBhMWEyIiBkPSJtIDAsNjEuNDggYyAwLDEuNTEgMS4wNiwyLjg2IDIuODcsMi44NiBoIDY5Ljc4IGMgMS41MSwwIDIuODcsLTEuMDUgMi44NywtMi44NiB2IC01MCBIIDAgWiIvPiYjeGE7JiN4YTs8cGF0aCBpZD0icGF0aDY0MTE2IiBpbmtzY2FwZTpjb25uZWN0b3ItY3VydmF0dXJlPSIwIiBzdHlsZT0iZmlsbDojN2E3YTdhIiBkPSJNIDcyLjY1LDAgSCAyLjg3IEMgMS4wNiwwIDAsMS4zNSAwLDIuODcgdiA4LjYgSCA3NS41MiBWIDIuODcgQyA3NS41MiwxLjM1IDc0LjQ2LDAgNzIuNjUsMCBaIi8+JiN4YTsmI3hhOzxyZWN0IGlkPSJyZWN0NjQxMjQiIHg9IjI4LjM5OTk5NCIgeT0iMTYuNDU5OTk5IiBzdHlsZT0iZmlsbDojZmZmZmZmIiB3aWR0aD0iMTkuMDMwMDAxIiBoZWlnaHQ9IjExLjQ4Ii8+JiN4YTsmI3hhOzxyZWN0IGlkPSJyZWN0NjQxMzIiIHg9IjI4LjM5OTk5NCIgeT0iMzIuMDIiIHN0eWxlPSJmaWxsOiNmY2QxMTYiIHdpZHRoPSIxOS4wMzAwMDEiIGhlaWdodD0iMTEuNDgiLz4mI3hhOyYjeGE7PHJlY3QgaWQ9InJlY3Q2NDE0MCIgeD0iNTEuMDUwMDAzIiB5PSIzMi4wMiIgc3R5bGU9ImZpbGw6I2ZjZDExNiIgd2lkdGg9IjE5LjAzMDAwMSIgaGVpZ2h0PSIxMS40OCIvPiYjeGE7JiN4YTs8cmVjdCBpZD0icmVjdDY0MTQ4IiB4PSI1MS4wNTAwMDMiIHk9IjE2LjQ1OTk5OSIgc3R5bGU9ImZpbGw6I2ZmZmZmZiIgd2lkdGg9IjE5LjAzMDAwMSIgaGVpZ2h0PSIxMS40OCIvPiYjeGE7JiN4YTs8cmVjdCBpZD0icmVjdDY0MTU2IiB4PSI1LjczOTk5NzkiIHk9IjE2LjQ1OTk5OSIgc3R5bGU9ImZpbGw6I2ZmZmZmZiIgd2lkdGg9IjE5LjAzMDAwMSIgaGVpZ2h0PSIxMS40OCIvPiYjeGE7JiN4YTs8cmVjdCBpZD0icmVjdDY0MTY0IiB4PSI1LjczOTk5NzkiIHk9IjMyLjAyIiBzdHlsZT0iZmlsbDojZmZmZmZmIiB3aWR0aD0iMTkuMDMwMDAxIiBoZWlnaHQ9IjExLjQ4Ii8+JiN4YTsmI3hhOzxyZWN0IGlkPSJyZWN0NjQxNzIiIHg9IjUuNzM5OTk3OSIgeT0iNDcuNDMiIHN0eWxlPSJmaWxsOiNmY2QxMTYiIHdpZHRoPSIxOS4wMzAwMDEiIGhlaWdodD0iMTEuNDgiLz4mI3hhOyYjeGE7PHJlY3QgaWQ9InJlY3Q2NDE4MCIgeD0iMjguMzk5OTk0IiB5PSI0Ny40MyIgc3R5bGU9ImZpbGw6I2ZjZDExNiIgd2lkdGg9IjE5LjAzMDAwMSIgaGVpZ2h0PSIxMS40OCIvPiYjeGE7JiN4YTs8cmVjdCBpZD0icmVjdDY0MTg4IiB4PSI1MS4wNTAwMDMiIHk9IjQ3LjQzIiBzdHlsZT0iZmlsbDojZmNkMTE2IiB3aWR0aD0iMTkuMDMwMDAxIiBoZWlnaHQ9IjExLjQ4Ii8+JiN4YTsmI3hhOzxwYXRoIGlkPSJwYXRoNjQxOTYiIGlua3NjYXBlOmNvbm5lY3Rvci1jdXJ2YXR1cmU9IjAiIHN0eWxlPSJmaWxsOiNmZmZmZmY7ZmlsbC1vcGFjaXR5OjAuMiIgZD0iTSAyLjg3LDAgQyAxLjUxLDAgMCwxLjM2IDAsMi44NyB2IDExLjE4IDQuOTggNDIuNDUgYyAwLDEuNTEgMS41MSwyLjg2IDIuODcsMi44NiBIIDYuMDQgTCA2NS44NiwwIFoiLz4mI3hhOzwvc3ZnPg==;" parent="1" vertex="1">
          <mxGeometry x="694" y="338" width="58" height="49" as="geometry" />
        </mxCell>
        <mxCell id="yIlqXNv4PA9Dnh1hxRCn-57" value="Active Directory" style="group;labelPosition=center;verticalLabelPosition=bottom;align=center;verticalAlign=top;" parent="1" vertex="1" connectable="0">
          <mxGeometry x="514" y="78.75" width="67" height="59.75" as="geometry" />
        </mxCell>
        <mxCell id="yIlqXNv4PA9Dnh1hxRCn-34" value="" style="aspect=fixed;html=1;perimeter=none;align=center;shadow=0;dashed=0;image;fontSize=12;image=img/lib/mscae/Virtual_Machine.svg;" parent="yIlqXNv4PA9Dnh1hxRCn-57" vertex="1">
          <mxGeometry width="54" height="50" as="geometry" />
        </mxCell>
        <mxCell id="yIlqXNv4PA9Dnh1hxRCn-29" value="" style="shadow=0;dashed=0;strokeColor=none;html=1;labelPosition=center;verticalLabelPosition=bottom;verticalAlign=top;align=center;shape=mxgraph.mscae.other.windows;fillColor=#00188D;aspect=fixed;" parent="yIlqXNv4PA9Dnh1hxRCn-57" vertex="1">
          <mxGeometry x="39" y="30.75" width="28" height="29" as="geometry" />
        </mxCell>
        <mxCell id="yIlqXNv4PA9Dnh1hxRCn-58" value="Sharepoint" style="group;labelPosition=center;verticalLabelPosition=bottom;align=center;verticalAlign=top;" parent="1" vertex="1" connectable="0">
          <mxGeometry x="514" y="212.5" width="371" height="190.5" as="geometry" />
        </mxCell>
        <mxCell id="yIlqXNv4PA9Dnh1hxRCn-35" value="" style="aspect=fixed;html=1;perimeter=none;align=center;shadow=0;dashed=0;image;fontSize=12;image=img/lib/mscae/Virtual_Machine.svg;" parent="yIlqXNv4PA9Dnh1hxRCn-58" vertex="1">
          <mxGeometry width="54" height="50" as="geometry" />
        </mxCell>
        <mxCell id="yIlqXNv4PA9Dnh1hxRCn-30" value="" style="shadow=0;dashed=0;strokeColor=none;html=1;labelPosition=center;verticalLabelPosition=bottom;verticalAlign=top;align=center;shape=mxgraph.mscae.other.sharepoint;fillColor=#2471BA;aspect=fixed;" parent="yIlqXNv4PA9Dnh1hxRCn-58" vertex="1">
          <mxGeometry x="40" y="30.75" width="30" height="29" as="geometry" />
        </mxCell>
        <mxCell id="yIlqXNv4PA9Dnh1hxRCn-62" value="10" style="ellipse;whiteSpace=wrap;html=1;aspect=fixed;fillColor=#4D9900;strokeColor=none;labelBackgroundColor=none;" parent="1" vertex="1">
          <mxGeometry x="114" y="201" width="23" height="23" as="geometry" />
        </mxCell>
        <mxCell id="yIlqXNv4PA9Dnh1hxRCn-63" value="1" style="ellipse;whiteSpace=wrap;html=1;aspect=fixed;fillColor=#4D9900;strokeColor=none;labelBackgroundColor=none;" parent="1" vertex="1">
          <mxGeometry x="-60" y="795" width="23" height="23" as="geometry" />
        </mxCell>
        <mxCell id="yIlqXNv4PA9Dnh1hxRCn-64" value="9" style="ellipse;whiteSpace=wrap;html=1;aspect=fixed;fillColor=#4D9900;strokeColor=none;labelBackgroundColor=none;" parent="1" vertex="1">
          <mxGeometry x="240" y="71.5" width="23" height="23" as="geometry" />
        </mxCell>
        <mxCell id="yIlqXNv4PA9Dnh1hxRCn-65" value="1" style="ellipse;whiteSpace=wrap;html=1;aspect=fixed;fillColor=#4D9900;strokeColor=none;labelBackgroundColor=none;" parent="1" vertex="1">
          <mxGeometry x="302.5" y="39" width="23" height="23" as="geometry" />
        </mxCell>
        <mxCell id="yIlqXNv4PA9Dnh1hxRCn-66" value="2" style="ellipse;whiteSpace=wrap;html=1;aspect=fixed;fillColor=#4D9900;strokeColor=none;labelBackgroundColor=none;" parent="1" vertex="1">
          <mxGeometry x="394" y="71.5" width="23" height="23" as="geometry" />
        </mxCell>
        <mxCell id="yIlqXNv4PA9Dnh1hxRCn-67" value="4" style="ellipse;whiteSpace=wrap;html=1;aspect=fixed;fillColor=#4D9900;strokeColor=none;labelBackgroundColor=none;" parent="1" vertex="1">
          <mxGeometry x="572.5" y="60" width="23" height="23" as="geometry" />
        </mxCell>
        <mxCell id="yIlqXNv4PA9Dnh1hxRCn-68" value="3" style="ellipse;whiteSpace=wrap;html=1;aspect=fixed;fillColor=#4D9900;strokeColor=none;labelBackgroundColor=none;" parent="1" vertex="1">
          <mxGeometry x="754" y="60" width="23" height="23" as="geometry" />
        </mxCell>
        <mxCell id="yIlqXNv4PA9Dnh1hxRCn-69" value="8" style="ellipse;whiteSpace=wrap;html=1;aspect=fixed;fillColor=#4D9900;strokeColor=none;labelBackgroundColor=none;" parent="1" vertex="1">
          <mxGeometry x="394" y="202.5" width="23" height="23" as="geometry" />
        </mxCell>
        <mxCell id="yIlqXNv4PA9Dnh1hxRCn-70" value="7" style="ellipse;whiteSpace=wrap;html=1;aspect=fixed;fillColor=#4D9900;strokeColor=none;labelBackgroundColor=none;" parent="1" vertex="1">
          <mxGeometry x="572.5" y="206" width="23" height="23" as="geometry" />
        </mxCell>
        <mxCell id="yIlqXNv4PA9Dnh1hxRCn-71" value="6" style="ellipse;whiteSpace=wrap;html=1;aspect=fixed;fillColor=#4D9900;strokeColor=none;labelBackgroundColor=none;" parent="1" vertex="1">
          <mxGeometry x="572.5" y="178" width="23" height="23" as="geometry" />
        </mxCell>
        <mxCell id="yIlqXNv4PA9Dnh1hxRCn-72" value="5" style="ellipse;whiteSpace=wrap;html=1;aspect=fixed;fillColor=#4D9900;strokeColor=none;labelBackgroundColor=none;" parent="1" vertex="1">
          <mxGeometry x="572.5" y="313.5" width="23" height="23" as="geometry" />
        </mxCell>
        <mxCell id="yIlqXNv4PA9Dnh1hxRCn-73" value="11" style="ellipse;whiteSpace=wrap;html=1;aspect=fixed;fillColor=#4D9900;strokeColor=none;labelBackgroundColor=none;" parent="1" vertex="1">
          <mxGeometry x="394" y="463.5" width="23" height="23" as="geometry" />
        </mxCell>
        <mxCell id="yIlqXNv4PA9Dnh1hxRCn-74" value="" style="rounded=0;whiteSpace=wrap;html=1;fillColor=#EAEDED;fontSize=22;fontColor=#FFFFFF;strokeColor=none;labelBackgroundColor=none;" parent="1" vertex="1">
          <mxGeometry x="1780" y="200" width="539" height="793" as="geometry" />
        </mxCell>
        <mxCell id="yIlqXNv4PA9Dnh1hxRCn-75" value="Representa a los usuarios finales que interactúan con la aplicación, incluyendo médicos, personal administrativo y otros profesionales de la salud." style="text;html=1;align=left;verticalAlign=top;spacingTop=-4;fontSize=14;labelBackgroundColor=none;whiteSpace=wrap;" parent="1" vertex="1">
          <mxGeometry x="1850" y="211" width="449" height="72" as="geometry" />
        </mxCell>
        <mxCell id="yIlqXNv4PA9Dnh1hxRCn-82" value="1" style="ellipse;whiteSpace=wrap;html=1;aspect=fixed;fillColor=#4D9900;strokeColor=none;labelBackgroundColor=none;" parent="1" vertex="1">
          <mxGeometry x="1800" y="217.5" width="23" height="23" as="geometry" />
        </mxCell>
        <mxCell id="yIlqXNv4PA9Dnh1hxRCn-95" value="Incluyen computadoras de escritorio, laptops, tablets y dispositivos móviles que los usuarios utilizan para acceder al sistema." style="text;html=1;align=left;verticalAlign=top;spacingTop=-4;fontSize=14;labelBackgroundColor=none;whiteSpace=wrap;" parent="1" vertex="1">
          <mxGeometry x="1850" y="281.5" width="449" height="72" as="geometry" />
        </mxCell>
        <mxCell id="yIlqXNv4PA9Dnh1hxRCn-96" value="2" style="ellipse;whiteSpace=wrap;html=1;aspect=fixed;fillColor=#4D9900;strokeColor=none;labelBackgroundColor=none;" parent="1" vertex="1">
          <mxGeometry x="1800" y="288" width="23" height="23" as="geometry" />
        </mxCell>
        <mxCell id="yIlqXNv4PA9Dnh1hxRCn-97" value="Es la interfaz principal del sistema, accesible para las clínicas a través de navegadores web. Proporciona funcionalidades como gestión de citas, historias clínicas, facturación, programación, etc." style="text;html=1;align=left;verticalAlign=top;spacingTop=-4;fontSize=14;labelBackgroundColor=none;whiteSpace=wrap;" parent="1" vertex="1">
          <mxGeometry x="1850" y="353.5" width="449" height="72" as="geometry" />
        </mxCell>
        <mxCell id="yIlqXNv4PA9Dnh1hxRCn-98" value="3" style="ellipse;whiteSpace=wrap;html=1;aspect=fixed;fillColor=#4D9900;strokeColor=none;labelBackgroundColor=none;" parent="1" vertex="1">
          <mxGeometry x="1800" y="360" width="23" height="23" as="geometry" />
        </mxCell>
        <mxCell id="yIlqXNv4PA9Dnh1hxRCn-99" value="&lt;span&gt;Lorem ipsum dolor sit amet, consectetur adipiscing elit, sed do eiusmod tempor incididunt ut labore et dolore magna aliqua. Ut enim ad minim veniam, quis nostrud exercitation ullamco laboris nisi ut aliquip ex ea commodo consequat.&lt;/span&gt;" style="text;html=1;align=left;verticalAlign=top;spacingTop=-4;fontSize=14;labelBackgroundColor=none;whiteSpace=wrap;" parent="1" vertex="1">
          <mxGeometry x="1850" y="423.5" width="449" height="72" as="geometry" />
        </mxCell>
        <mxCell id="yIlqXNv4PA9Dnh1hxRCn-100" value="4" style="ellipse;whiteSpace=wrap;html=1;aspect=fixed;fillColor=#4D9900;strokeColor=none;labelBackgroundColor=none;" parent="1" vertex="1">
          <mxGeometry x="1800" y="430" width="23" height="23" as="geometry" />
        </mxCell>
        <mxCell id="yIlqXNv4PA9Dnh1hxRCn-101" value="&lt;span&gt;Lorem ipsum dolor sit amet, consectetur adipiscing elit, sed do eiusmod tempor incididunt ut labore et dolore magna aliqua. Ut enim ad minim veniam, quis nostrud exercitation ullamco laboris nisi ut aliquip ex ea commodo consequat.&lt;/span&gt;" style="text;html=1;align=left;verticalAlign=top;spacingTop=-4;fontSize=14;labelBackgroundColor=none;whiteSpace=wrap;" parent="1" vertex="1">
          <mxGeometry x="1850" y="493.5" width="449" height="72" as="geometry" />
        </mxCell>
        <mxCell id="yIlqXNv4PA9Dnh1hxRCn-102" value="5" style="ellipse;whiteSpace=wrap;html=1;aspect=fixed;fillColor=#4D9900;strokeColor=none;labelBackgroundColor=none;" parent="1" vertex="1">
          <mxGeometry x="1800" y="500" width="23" height="23" as="geometry" />
        </mxCell>
        <mxCell id="yIlqXNv4PA9Dnh1hxRCn-103" value="&lt;span&gt;Lorem ipsum dolor sit amet, consectetur adipiscing elit, sed do eiusmod tempor incididunt ut labore et dolore magna aliqua. Ut enim ad minim veniam, quis nostrud exercitation ullamco laboris nisi ut aliquip ex ea commodo consequat.&lt;/span&gt;" style="text;html=1;align=left;verticalAlign=top;spacingTop=-4;fontSize=14;labelBackgroundColor=none;whiteSpace=wrap;" parent="1" vertex="1">
          <mxGeometry x="1850" y="563.5" width="449" height="72" as="geometry" />
        </mxCell>
        <mxCell id="yIlqXNv4PA9Dnh1hxRCn-104" value="6" style="ellipse;whiteSpace=wrap;html=1;aspect=fixed;fillColor=#4D9900;strokeColor=none;labelBackgroundColor=none;" parent="1" vertex="1">
          <mxGeometry x="1800" y="570" width="23" height="23" as="geometry" />
        </mxCell>
        <mxCell id="yIlqXNv4PA9Dnh1hxRCn-105" value="&lt;span&gt;Lorem ipsum dolor sit amet, consectetur adipiscing elit, sed do eiusmod tempor incididunt ut labore et dolore magna aliqua. Ut enim ad minim veniam, quis nostrud exercitation ullamco laboris nisi ut aliquip ex ea commodo consequat.&lt;/span&gt;" style="text;html=1;align=left;verticalAlign=top;spacingTop=-4;fontSize=14;labelBackgroundColor=none;whiteSpace=wrap;" parent="1" vertex="1">
          <mxGeometry x="1850" y="633.5" width="449" height="72" as="geometry" />
        </mxCell>
        <mxCell id="yIlqXNv4PA9Dnh1hxRCn-106" value="7" style="ellipse;whiteSpace=wrap;html=1;aspect=fixed;fillColor=#4D9900;strokeColor=none;labelBackgroundColor=none;" parent="1" vertex="1">
          <mxGeometry x="1800" y="640" width="23" height="23" as="geometry" />
        </mxCell>
        <mxCell id="yIlqXNv4PA9Dnh1hxRCn-107" value="&lt;span&gt;Lorem ipsum dolor sit amet, consectetur adipiscing elit, sed do eiusmod tempor incididunt ut labore et dolore magna aliqua. Ut enim ad minim veniam, quis nostrud exercitation ullamco laboris nisi ut aliquip ex ea commodo consequat.&lt;/span&gt;" style="text;html=1;align=left;verticalAlign=top;spacingTop=-4;fontSize=14;labelBackgroundColor=none;whiteSpace=wrap;" parent="1" vertex="1">
          <mxGeometry x="1850" y="703.5" width="449" height="72" as="geometry" />
        </mxCell>
        <mxCell id="yIlqXNv4PA9Dnh1hxRCn-108" value="8" style="ellipse;whiteSpace=wrap;html=1;aspect=fixed;fillColor=#4D9900;strokeColor=none;labelBackgroundColor=none;" parent="1" vertex="1">
          <mxGeometry x="1800" y="710" width="23" height="23" as="geometry" />
        </mxCell>
        <mxCell id="yIlqXNv4PA9Dnh1hxRCn-109" value="&lt;span&gt;Lorem ipsum dolor sit amet, consectetur adipiscing elit, sed do eiusmod tempor incididunt ut labore et dolore magna aliqua. Ut enim ad minim veniam, quis nostrud exercitation ullamco laboris nisi ut aliquip ex ea commodo consequat.&lt;/span&gt;" style="text;html=1;align=left;verticalAlign=top;spacingTop=-4;fontSize=14;labelBackgroundColor=none;whiteSpace=wrap;" parent="1" vertex="1">
          <mxGeometry x="1850" y="773.5" width="449" height="72" as="geometry" />
        </mxCell>
        <mxCell id="yIlqXNv4PA9Dnh1hxRCn-110" value="9" style="ellipse;whiteSpace=wrap;html=1;aspect=fixed;fillColor=#4D9900;strokeColor=none;labelBackgroundColor=none;" parent="1" vertex="1">
          <mxGeometry x="1800" y="780" width="23" height="23" as="geometry" />
        </mxCell>
        <mxCell id="yIlqXNv4PA9Dnh1hxRCn-111" value="&lt;span&gt;Lorem ipsum dolor sit amet, consectetur adipiscing elit, sed do eiusmod tempor incididunt ut labore et dolore magna aliqua. Ut enim ad minim veniam, quis nostrud exercitation ullamco laboris nisi ut aliquip ex ea commodo consequat.&lt;/span&gt;" style="text;html=1;align=left;verticalAlign=top;spacingTop=-4;fontSize=14;labelBackgroundColor=none;whiteSpace=wrap;" parent="1" vertex="1">
          <mxGeometry x="1850" y="843.5" width="449" height="72" as="geometry" />
        </mxCell>
        <mxCell id="yIlqXNv4PA9Dnh1hxRCn-112" value="10" style="ellipse;whiteSpace=wrap;html=1;aspect=fixed;fillColor=#4D9900;strokeColor=none;labelBackgroundColor=none;" parent="1" vertex="1">
          <mxGeometry x="1800" y="850" width="23" height="23" as="geometry" />
        </mxCell>
        <mxCell id="yIlqXNv4PA9Dnh1hxRCn-113" value="&lt;span&gt;Lorem ipsum dolor sit amet, consectetur adipiscing elit, sed do eiusmod tempor incididunt ut labore et dolore magna aliqua. Ut enim ad minim veniam, quis nostrud exercitation ullamco laboris nisi ut aliquip ex ea commodo consequat.&lt;/span&gt;" style="text;html=1;align=left;verticalAlign=top;spacingTop=-4;fontSize=14;labelBackgroundColor=none;whiteSpace=wrap;" parent="1" vertex="1">
          <mxGeometry x="1850" y="913.5" width="449" height="72" as="geometry" />
        </mxCell>
        <mxCell id="yIlqXNv4PA9Dnh1hxRCn-114" value="11" style="ellipse;whiteSpace=wrap;html=1;aspect=fixed;fillColor=#4D9900;strokeColor=none;labelBackgroundColor=none;" parent="1" vertex="1">
          <mxGeometry x="1800" y="920" width="23" height="23" as="geometry" />
        </mxCell>
        <mxCell id="Oi9bZ2Bt2lVT0VfedK1E-4" value="" style="shape=image;verticalLabelPosition=bottom;labelBackgroundColor=#ffffff;verticalAlign=top;aspect=fixed;imageAspect=0;image=data:image/svg+xml,PHN2ZyB4bWxuczpjYz0iaHR0cDovL2NyZWF0aXZlY29tbW9ucy5vcmcvbnMjIiB4bWxuczpkYz0iaHR0cDovL3B1cmwub3JnL2RjL2VsZW1lbnRzLzEuMS8iIHhtbG5zOmlua3NjYXBlPSJodHRwOi8vd3d3Lmlua3NjYXBlLm9yZy9uYW1lc3BhY2VzL2lua3NjYXBlIiB4bWxuczpyZGY9Imh0dHA6Ly93d3cudzMub3JnLzE5OTkvMDIvMjItcmRmLXN5bnRheC1ucyMiIHhtbG5zOnNvZGlwb2RpPSJodHRwOi8vc29kaXBvZGkuc291cmNlZm9yZ2UubmV0L0RURC9zb2RpcG9kaS0wLmR0ZCIgeG1sbnM6c3ZnPSJodHRwOi8vd3d3LnczLm9yZy8yMDAwL3N2ZyIgeG1sbnM9Imh0dHA6Ly93d3cudzMub3JnLzIwMDAvc3ZnIiB4bWxuczp4bGluaz0iaHR0cDovL3d3dy53My5vcmcvMTk5OS94bGluayIgdmVyc2lvbj0iMS4xIiBpZD0ic3ZnMTQ5NyIgaW5rc2NhcGU6dmVyc2lvbj0iMC45Mi4zICgyNDA1NTQ2LCAyMDE4LTAzLTExKSIgc29kaXBvZGk6ZG9jbmFtZT0iYXBwbGUuc3ZnIiB4PSIwcHgiIHk9IjBweCIgdmlld0JveD0iMCAwIDc0LjY3IDcwLjQiIHN0eWxlPSJlbmFibGUtYmFja2dyb3VuZDpuZXcgMCAwIDc0LjY3IDcwLjQ7IiB4bWw6c3BhY2U9InByZXNlcnZlIj4mI3hhOzxzb2RpcG9kaTpuYW1lZHZpZXcgYm9yZGVyY29sb3I9IiM2NjY2NjYiIGJvcmRlcm9wYWNpdHk9IjEiIGZpdC1tYXJnaW4tYm90dG9tPSIwIiBmaXQtbWFyZ2luLWxlZnQ9IjAiIGZpdC1tYXJnaW4tcmlnaHQ9IjAiIGZpdC1tYXJnaW4tdG9wPSIwIiBncmlkdG9sZXJhbmNlPSIxMCIgZ3VpZGV0b2xlcmFuY2U9IjEwIiBpZD0ibmFtZWR2aWV3MTQ5OSIgaW5rc2NhcGU6Y3VycmVudC1sYXllcj0ic3ZnMTQ5NyIgaW5rc2NhcGU6Y3g9IjQ5Ljc3NTk3NyIgaW5rc2NhcGU6Y3k9IjQ2LjkzNDUyOSIgaW5rc2NhcGU6cGFnZW9wYWNpdHk9IjAiIGlua3NjYXBlOnBhZ2VzaGFkb3c9IjIiIGlua3NjYXBlOndpbmRvdy1oZWlnaHQ9IjEwMTciIGlua3NjYXBlOndpbmRvdy1tYXhpbWl6ZWQ9IjEiIGlua3NjYXBlOndpbmRvdy13aWR0aD0iMTkyMCIgaW5rc2NhcGU6d2luZG93LXg9Ii04IiBpbmtzY2FwZTp3aW5kb3cteT0iLTgiIGlua3NjYXBlOnpvb209IjguMjkwNDk0NCIgb2JqZWN0dG9sZXJhbmNlPSIxMCIgcGFnZWNvbG9yPSIjZmZmZmZmIiBzaG93Z3JpZD0iZmFsc2UiPiYjeGE7CTwvc29kaXBvZGk6bmFtZWR2aWV3PiYjeGE7PGcgaWQ9ImcxNDk1IiB0cmFuc2Zvcm09InRyYW5zbGF0ZSgtNC4wMTU4MTgzLC00LjAxMjcxMTQpIj4mI3hhOwk8dGl0bGUgaWQ9InRpdGxlMTQ3MCI+UGFnZS0xPC90aXRsZT4mI3hhOwk8ZyBpZD0iZ3JvdXAzODEwLTEiIHRyYW5zZm9ybT0idHJhbnNsYXRlKDQuMDE1NzcsLTQuMDE1NzUpIj4mI3hhOwkJPHRpdGxlIGlkPSJ0aXRsZTE0NzIiPkFwcGxlPC90aXRsZT4mI3hhOwkJPGcgaWQ9InNoYXBlMzgxMS0yIiB0cmFuc2Zvcm09InRyYW5zbGF0ZSgyNC4zOTgxLC00LjA2NjM1KSI+JiN4YTsJCQk8dGl0bGUgaWQ9InRpdGxlMTQ3NCI+U2hlZXQuMzgxMTwvdGl0bGU+JiN4YTsJCQk8cmVjdCBpZD0icmVjdDE0NzYiIHg9IjAiIHk9IjY4LjEiIHN0eWxlPSJmaWxsOiMyQzQyNEY7IiB3aWR0aD0iMjUuODciIGhlaWdodD0iMTAuMzQiLz4mI3hhOwkJPC9nPiYjeGE7CQk8ZyBpZD0ic2hhcGUzODEyLTQiIHRyYW5zZm9ybT0idHJhbnNsYXRlKDE1LjI4NTUpIj4mI3hhOwkJCTx0aXRsZSBpZD0idGl0bGUxNDc5Ij5TaGVldC4zODEyPC90aXRsZT4mI3hhOwkJCTxyZWN0IGlkPSJyZWN0MTQ4MSIgeD0iMCIgeT0iNzQuMzciIHN0eWxlPSJmaWxsOiNCQkMyQzY7IiB3aWR0aD0iNDQuMDkiIGhlaWdodD0iNC4wNyIvPiYjeGE7CQk8L2c+JiN4YTsJCTxnIGlkPSJzaGFwZTM4MTMtNiIgdHJhbnNmb3JtPSJ0cmFuc2xhdGUoMCwtMTQuNDAzNykiPiYjeGE7CQkJPHRpdGxlIGlkPSJ0aXRsZTE0ODQiPlNoZWV0LjM4MTM8L3RpdGxlPiYjeGE7CQkJPHBhdGggaWQ9InBhdGgxNDg2IiBpbmtzY2FwZTpjb25uZWN0b3ItY3VydmF0dXJlPSIwIiBzdHlsZT0iZmlsbDojQkJDMkM2OyIgZD0iTTAsNjQuNzJ2MTEuMDdjMCwxLjQ2LDEuMTgsMi42NCwyLjYzLDIuNjQgICAgIGMwLjAxLDAsMC4wMSwwLDAuMDIsMGg2OS4zMmMxLjQ2LDAuMDEsMi42NC0xLjE3LDIuNjUtMi42MmMwLTAuMDEsMC0wLjAxLDAtMC4wMlY2NC43MkgweiIvPiYjeGE7CQk8L2c+JiN4YTsJCTxnIGlkPSJzaGFwZTM4MTQtOCIgdHJhbnNmb3JtPSJ0cmFuc2xhdGUoMC4wNDg5OTIxLC0yOC4xMjE1KSI+JiN4YTsJCQk8dGl0bGUgaWQ9InRpdGxlMTQ4OSI+U2hlZXQuMzgxNDwvdGl0bGU+JiN4YTsJCQk8cGF0aCBpZD0icGF0aDE0OTEiIGlua3NjYXBlOmNvbm5lY3Rvci1jdXJ2YXR1cmU9IjAiIHN0eWxlPSJmaWxsOiM1MjdGOTk7IiBkPSJNNzQuNjIsMzguOGMwLjAxLTEuNDYtMS4xNy0yLjY0LTIuNjItMi42NSAgICAgYy0wLjAxLDAtMC4wMiwwLTAuMDMsMEgyLjY1QzEuMTksMzYuMTQsMC4wMSwzNy4zMiwwLDM4Ljc3YzAsMC4wMSwwLDAuMDIsMCwwLjAzdjM5LjYzaDc0LjYyVjM4Ljh6Ii8+JiN4YTsJCTwvZz4mI3hhOwk8L2c+JiN4YTs8L2c+JiN4YTs8L3N2Zz4=;" vertex="1" parent="1">
          <mxGeometry x="52.5" y="620" width="54.11" height="50.5" as="geometry" />
        </mxCell>
        <mxCell id="Oi9bZ2Bt2lVT0VfedK1E-5" value="" style="shape=image;verticalLabelPosition=bottom;labelBackgroundColor=#ffffff;verticalAlign=top;aspect=fixed;imageAspect=0;image=data:image/svg+xml,PHN2ZyB4bWxuczpjYz0iaHR0cDovL2NyZWF0aXZlY29tbW9ucy5vcmcvbnMjIiB4bWxuczpkYz0iaHR0cDovL3B1cmwub3JnL2RjL2VsZW1lbnRzLzEuMS8iIHhtbG5zOmlua3NjYXBlPSJodHRwOi8vd3d3Lmlua3NjYXBlLm9yZy9uYW1lc3BhY2VzL2lua3NjYXBlIiB4bWxuczpyZGY9Imh0dHA6Ly93d3cudzMub3JnLzE5OTkvMDIvMjItcmRmLXN5bnRheC1ucyMiIHhtbG5zOnNvZGlwb2RpPSJodHRwOi8vc29kaXBvZGkuc291cmNlZm9yZ2UubmV0L0RURC9zb2RpcG9kaS0wLmR0ZCIgeG1sbnM6c3ZnPSJodHRwOi8vd3d3LnczLm9yZy8yMDAwL3N2ZyIgeG1sbnM9Imh0dHA6Ly93d3cudzMub3JnLzIwMDAvc3ZnIiB4bWxuczp4bGluaz0iaHR0cDovL3d3dy53My5vcmcvMTk5OS94bGluayIgdmVyc2lvbj0iMS4xIiBpZD0ic3ZnMTA4MzUiIGlua3NjYXBlOnZlcnNpb249IjAuOTIuMyAoMjQwNTU0NiwgMjAxOC0wMy0xMSkiIHNvZGlwb2RpOmRvY25hbWU9ImlwaG9uZS5zdmciIHg9IjBweCIgeT0iMHB4IiB2aWV3Qm94PSIwIDAgMjguMTYgNTEuNDciIHN0eWxlPSJlbmFibGUtYmFja2dyb3VuZDpuZXcgMCAwIDI4LjE2IDUxLjQ3OyIgeG1sOnNwYWNlPSJwcmVzZXJ2ZSI+JiN4YTs8c29kaXBvZGk6bmFtZWR2aWV3IGJvcmRlcmNvbG9yPSIjNjY2NjY2IiBib3JkZXJvcGFjaXR5PSIxIiBmaXQtbWFyZ2luLWJvdHRvbT0iMCIgZml0LW1hcmdpbi1sZWZ0PSIwIiBmaXQtbWFyZ2luLXJpZ2h0PSIwIiBmaXQtbWFyZ2luLXRvcD0iMCIgZ3JpZHRvbGVyYW5jZT0iMTAiIGd1aWRldG9sZXJhbmNlPSIxMCIgaWQ9Im5hbWVkdmlldzEwODM3IiBpbmtzY2FwZTpjdXJyZW50LWxheWVyPSJzdmcxMDgzNSIgaW5rc2NhcGU6Y3g9IjE4Ljc3MzEzNiIgaW5rc2NhcGU6Y3k9IjM0LjMxNTY3MiIgaW5rc2NhcGU6cGFnZW9wYWNpdHk9IjAiIGlua3NjYXBlOnBhZ2VzaGFkb3c9IjIiIGlua3NjYXBlOndpbmRvdy1oZWlnaHQ9IjEwMTciIGlua3NjYXBlOndpbmRvdy1tYXhpbWl6ZWQ9IjEiIGlua3NjYXBlOndpbmRvdy13aWR0aD0iMTkyMCIgaW5rc2NhcGU6d2luZG93LXg9Ii04IiBpbmtzY2FwZTp3aW5kb3cteT0iLTgiIGlua3NjYXBlOnpvb209IjEyLjYzNDQyMyIgb2JqZWN0dG9sZXJhbmNlPSIxMCIgcGFnZWNvbG9yPSIjZmZmZmZmIiBzaG93Z3JpZD0iZmFsc2UiPiYjeGE7CTwvc29kaXBvZGk6bmFtZWR2aWV3PiYjeGE7PGcgaWQ9ImcxMDgzMyI+JiN4YTsJPHRpdGxlIGlkPSJ0aXRsZTEwODA4Ij5QYWdlLTE8L3RpdGxlPiYjeGE7CTxnIGlkPSJncm91cDM0NzYtMSI+JiN4YTsJCTx0aXRsZSBpZD0idGl0bGUxMDgxMCI+aVBob25lPC90aXRsZT4mI3hhOwkJPGcgaWQ9InNoYXBlMzQ3Ny0yIj4mI3hhOwkJCTx0aXRsZSBpZD0idGl0bGUxMDgxMiI+U2hlZXQuMzQ3NzwvdGl0bGU+JiN4YTsJCQk8cGF0aCBpZD0icGF0aDEwODE0IiBpbmtzY2FwZTpjb25uZWN0b3ItY3VydmF0dXJlPSIwIiBzdHlsZT0iZmlsbDojM0Y1NzY1OyIgZD0iTTI2LjIxLDBDMS44NCwwLDEuODQsMCwxLjg0LDAgICAgIEMwLjkyLDAsMCwwLjgsMCwxLjk5YzAsNDQuMzgsMCw0Ny42OCwwLDQ3LjY4YzAsMC45MiwwLjkyLDEuOCwxLjg0LDEuOGMyNC4zNywwLDI0LjM3LDAsMjQuMzcsMGMwLjkyLDAsMS45NS0wLjg4LDEuOTUtMS44ICAgICBjMC00NC40MiwwLTQ3LjY4LDAtNDcuNjhDMjguMTYsMC44LDI3LjEzLDAsMjYuMjEsMHoiLz4mI3hhOwkJPC9nPiYjeGE7CQk8ZyBpZD0ic2hhcGUzNDc4LTQiIHRyYW5zZm9ybT0idHJhbnNsYXRlKDkuMTgyNTEsLTQ3Ljc5MDQpIj4mI3hhOwkJCTx0aXRsZSBpZD0idGl0bGUxMDgxNyI+U2hlZXQuMzQ3ODwvdGl0bGU+JiN4YTsJCQk8cGF0aCBpZD0icGF0aDEwODE5IiBpbmtzY2FwZTpjb25uZWN0b3ItY3VydmF0dXJlPSIwIiBzdHlsZT0iZmlsbDojRkZGRkZGOyIgZD0iTTkuMTgsNTEuMDhjMCwwLjItMC4zOCwwLjM5LTAuOCwwLjM5ICAgICBjLTcuNjUsMC03LjY1LDAtNy42NSwwQzAuNDIsNTEuNDcsMCw1MS4yOCwwLDUxLjA4YzAtMC4xNSwwLjQyLTAuMjMsMC43My0wLjIzYzcuNjUsMCw3LjY1LDAsNy42NSwwICAgICBDOC44LDUwLjg1LDkuMTgsNTAuOTMsOS4xOCw1MS4wOHoiLz4mI3hhOwkJPC9nPiYjeGE7CQk8ZyBpZD0ic2hhcGUzNDc5LTYiIHRyYW5zZm9ybT0idHJhbnNsYXRlKDExLjYzMTIsLTEuMjI1MzkpIj4mI3hhOwkJCTx0aXRsZSBpZD0idGl0bGUxMDgyMiI+U2hlZXQuMzQ3OTwvdGl0bGU+JiN4YTsJCQk8cGF0aCBpZD0icGF0aDEwODI0IiBpbmtzY2FwZTpjb25uZWN0b3ItY3VydmF0dXJlPSIwIiBzdHlsZT0iZmlsbDojRkZGRkZGOyIgZD0iTTAsNDkuMDJjMC0xLjM0LDEuMTEtMi40NiwyLjQ1LTIuNDYgICAgIGMxLjM4LDAsMi40NSwxLjEyLDIuNDUsMi40NmMwLDEuMzctMS4wNywyLjQ1LTIuNDUsMi40NUMxLjExLDUxLjQ3LDAsNTAuMzksMCw0OS4wMnoiLz4mI3hhOwkJPC9nPiYjeGE7CQk8ZyBpZD0ic2hhcGUzNDgwLTgiIHRyYW5zZm9ybT0idHJhbnNsYXRlKDIuNzQ4NTgsLTcuMzUyMzYpIj4mI3hhOwkJCTx0aXRsZSBpZD0idGl0bGUxMDgyNyI+U2hlZXQuMzQ4MDwvdGl0bGU+JiN4YTsJCQk8cGF0aCBpZD0icGF0aDEwODI5IiBpbmtzY2FwZTpjb25uZWN0b3ItY3VydmF0dXJlPSIwIiBzdHlsZT0iZmlsbDojRkZGRkZGOyIgZD0iTTAsMTIuODdoMjIuNjV2MzguNkgwVjEyLjg3ICAgICBDMCwxMi44NywwLDEyLjg3LDAsMTIuODd6Ii8+JiN4YTsJCTwvZz4mI3hhOwk8L2c+JiN4YTs8L2c+JiN4YTs8L3N2Zz4=;" vertex="1" parent="1">
          <mxGeometry x="59.76" y="712.5" width="30.47" height="55.5" as="geometry" />
        </mxCell>
        <mxCell id="Oi9bZ2Bt2lVT0VfedK1E-6" value="" style="shape=image;verticalLabelPosition=bottom;labelBackgroundColor=#ffffff;verticalAlign=top;aspect=fixed;imageAspect=0;image=data:image/svg+xml,PHN2ZyB4bWxuczpjYz0iaHR0cDovL2NyZWF0aXZlY29tbW9ucy5vcmcvbnMjIiB4bWxuczpkYz0iaHR0cDovL3B1cmwub3JnL2RjL2VsZW1lbnRzLzEuMS8iIHhtbG5zOmlua3NjYXBlPSJodHRwOi8vd3d3Lmlua3NjYXBlLm9yZy9uYW1lc3BhY2VzL2lua3NjYXBlIiB4bWxuczpyZGY9Imh0dHA6Ly93d3cudzMub3JnLzE5OTkvMDIvMjItcmRmLXN5bnRheC1ucyMiIHhtbG5zOnNvZGlwb2RpPSJodHRwOi8vc29kaXBvZGkuc291cmNlZm9yZ2UubmV0L0RURC9zb2RpcG9kaS0wLmR0ZCIgeG1sbnM6c3ZnPSJodHRwOi8vd3d3LnczLm9yZy8yMDAwL3N2ZyIgeG1sbnM9Imh0dHA6Ly93d3cudzMub3JnLzIwMDAvc3ZnIiB4bWxuczp4bGluaz0iaHR0cDovL3d3dy53My5vcmcvMTk5OS94bGluayIgdmVyc2lvbj0iMS4xIiBpZD0ic3ZnMTIyNDkiIGlua3NjYXBlOnZlcnNpb249IjAuOTIuMyAoMjQwNTU0NiwgMjAxOC0wMy0xMSkiIHNvZGlwb2RpOmRvY25hbWU9ImxhcHRvcF83LnN2ZyIgeD0iMHB4IiB5PSIwcHgiIHZpZXdCb3g9IjAgMCA0NS4yNSAzOC45NiIgc3R5bGU9ImVuYWJsZS1iYWNrZ3JvdW5kOm5ldyAwIDAgNDUuMjUgMzguOTY7IiB4bWw6c3BhY2U9InByZXNlcnZlIj4mI3hhOzxzb2RpcG9kaTpuYW1lZHZpZXcgYm9yZGVyY29sb3I9IiM2NjY2NjYiIGJvcmRlcm9wYWNpdHk9IjEiIGZpdC1tYXJnaW4tYm90dG9tPSIwIiBmaXQtbWFyZ2luLWxlZnQ9IjAiIGZpdC1tYXJnaW4tcmlnaHQ9IjAiIGZpdC1tYXJnaW4tdG9wPSIwIiBncmlkdG9sZXJhbmNlPSIxMCIgZ3VpZGV0b2xlcmFuY2U9IjEwIiBpZD0ibmFtZWR2aWV3MTIyNTEiIGlua3NjYXBlOmN1cnJlbnQtbGF5ZXI9InN2ZzEyMjQ5IiBpbmtzY2FwZTpjeD0iMzAuMDg4NTU1IiBpbmtzY2FwZTpjeT0iMjUuOTcwNTIiIGlua3NjYXBlOnBhZ2VvcGFjaXR5PSIwIiBpbmtzY2FwZTpwYWdlc2hhZG93PSIyIiBpbmtzY2FwZTp3aW5kb3ctaGVpZ2h0PSIxMDE3IiBpbmtzY2FwZTp3aW5kb3ctbWF4aW1pemVkPSIxIiBpbmtzY2FwZTp3aW5kb3ctd2lkdGg9IjE5MjAiIGlua3NjYXBlOndpbmRvdy14PSItOCIgaW5rc2NhcGU6d2luZG93LXk9Ii04IiBpbmtzY2FwZTp6b29tPSIxNi4zMzg2NzMiIG9iamVjdHRvbGVyYW5jZT0iMTAiIHBhZ2Vjb2xvcj0iI2ZmZmZmZiIgc2hvd2dyaWQ9ImZhbHNlIj4mI3hhOwk8L3NvZGlwb2RpOm5hbWVkdmlldz4mI3hhOzxnIGlkPSJnMTIyNDciIHRyYW5zZm9ybT0idHJhbnNsYXRlKC0wLjY3OTI4NzA1LC0wLjQyMTc2OTIzKSI+JiN4YTsJPHRpdGxlIGlkPSJ0aXRsZTEyMjA1Ij5QYWdlLTE8L3RpdGxlPiYjeGE7CTxnIGlkPSJncm91cDM2NTUtMSIgdHJhbnNmb3JtPSJ0cmFuc2xhdGUoMC45MzA5OTMsLTAuNzA3ODc0KSI+JiN4YTsJCTx0aXRsZSBpZD0idGl0bGUxMjIwNyI+TGFwdG9wICM3PC90aXRsZT4mI3hhOwkJPGcgaWQ9InNoYXBlMzY1Ni0yIiB0cmFuc2Zvcm09InRyYW5zbGF0ZSgxMC45Nzk2LC0xMS41ODgzKSI+JiN4YTsJCQk8dGl0bGUgaWQ9InRpdGxlMTIyMDkiPnBhdGgyNTQ3NzwvdGl0bGU+JiN4YTsJCQk8cGF0aCBpZD0icGF0aDEyMjExIiBpbmtzY2FwZTpjb25uZWN0b3ItY3VydmF0dXJlPSIwIiBzdHlsZT0iZmlsbDojQzFDMUMxO2ZpbGwtb3BhY2l0eTowOyIgZD0iTTMzLjUyLDE5LjEgICAgIGMwLjAzLDAuMDYsMC4wNywwLjM0LDAuMDYsMC40MWwtMy4yNywxOS45M0wwLjAyLDMxLjQ1TDAsMzEuNjRsMjkuOTYsOC4wN2MwLjM0LDAuMDksMC42Ni0wLjExLDAuNy0wLjQ1bDMuMTYtMTkuNTMgICAgIGMwLjA1LTAuMjItMC4wOC0wLjU2LTAuMy0wLjYxVjE5LjF6Ii8+JiN4YTsJCTwvZz4mI3hhOwkJPGcgaWQ9InNoYXBlMzY1Ny00Ij4mI3hhOwkJCTx0aXRsZSBpZD0idGl0bGUxMjIxNCI+cGF0aDI1NTE2PC90aXRsZT4mI3hhOwkJCSYjeGE7CQkJCTxwYXRoIGlkPSJwYXRoMTIyMTYiIGlua3NjYXBlOmNvbm5lY3Rvci1jdXJ2YXR1cmU9IjAiIHN0eWxlPSJmaWxsOiNCRUJFQkU7c3Ryb2tlOiM1NTZBOEE7c3Ryb2tlLXdpZHRoOjAuNzU7c3Ryb2tlLW1pdGVybGltaXQ6MztzdHJva2Utb3BhY2l0eTowLjQ7IiBkPSIgICAgIE0zMy45NSwzOS42N0wwLjksMjkuNDRjLTAuNjctMC4yMy0wLjktMS41OC0wLjMxLTJsMTAuNzUtNy40N2wyOS45MSw4LjA0bDAuMDIsMC4xM2MwLjAzLDAuMjUtMC4wNSwwLjY4LTAuMTcsMC45bC01LjcsMTAuMTUgICAgIEMzNS4xOSwzOS41MywzNC4zNSwzOS44LDMzLjk1LDM5LjY3eiIvPiYjeGE7CQk8L2c+JiN4YTsJCTxnIGlkPSJzaGFwZTM2NTgtNiIgdHJhbnNmb3JtPSJ0cmFuc2xhdGUoMC4xNTc4MTcsLTAuNTI5ODE1KSI+JiN4YTsJCQk8dGl0bGUgaWQ9InRpdGxlMTIyMTkiPnBhdGgyNTUxODwvdGl0bGU+JiN4YTsJCQkmI3hhOwkJCQk8cGF0aCBpZD0icGF0aDEyMjIxIiBpbmtzY2FwZTpjb25uZWN0b3ItY3VydmF0dXJlPSIwIiBzdHlsZT0iZmlsbDojNTU2QThBO3N0cm9rZTojNTU2QThBO3N0cm9rZS13aWR0aDoxLjMxMzQ7c3Ryb2tlLWxpbmVjYXA6c3F1YXJlO3N0cm9rZS1taXRlcmxpbWl0OjM7c3Ryb2tlLW9wYWNpdHk6MC4yOyIgZD0iICAgICBNMzMuOSwzOS42OUwwLjgzLDI5LjI5QzAuMTYsMjkuMDcsMCwyOC4xNiwwLjU5LDI3LjcxbDkuOTItNy40MWwzMC41NSw4LjIzYzAsMCwwLjAyLDAsMCwwLjAzbC02LjE0LDEwLjcxICAgICBDMzQuNywzOS42NSwzNC4yOSwzOS44LDMzLjksMzkuNjlMMzMuOSwzOS42OXoiLz4mI3hhOwkJPC9nPiYjeGE7CQk8ZyBpZD0ic2hhcGUzNjU5LTgiIHRyYW5zZm9ybT0idHJhbnNsYXRlKDcuMDExNiwtNS41MDEwNikiPiYjeGE7CQkJPHRpdGxlIGlkPSJ0aXRsZTEyMjI0Ij5wYXRoMjU1MjA8L3RpdGxlPiYjeGE7CQkJJiN4YTsJCQkJPHBhdGggaWQ9InBhdGgxMjIyNiIgaW5rc2NhcGU6Y29ubmVjdG9yLWN1cnZhdHVyZT0iMCIgc3R5bGU9ImZpbGw6I0JFQkVCRTtzdHJva2U6IzU1NkE4QTtzdHJva2Utd2lkdGg6MS4zMTM0O3N0cm9rZS1taXRlcmxpbWl0OjM7c3Ryb2tlLW9wYWNpdHk6MC40NzsiIGQ9IiAgICAgTTE0LjY4LDM5LjY3bC03Ljg5LTIuNWMtMC42MS0wLjE5LTAuNzctMC45OS0wLjI3LTEuNDJsMS45NS0xLjYyYzAuMjItMC4xOCwwLjUxLTAuMjMsMC43OC0wLjE1bDcuMjUsMi4zNSAgICAgYzAuNTMsMC4xOCwwLjc0LDAuODIsMC40LDEuMjdsLTEuMzEsMS44Yy0wLjIzLDAuMjctMC42MSwwLjQtMC45NCwwLjI5TDE0LjY4LDM5LjY3eiBNMjguOSwzOUwwLjQyLDMwLjE1ICAgICBDMC4wOCwzMC4wNCwwLDI5LjU5LDAuMywyOS4zOGwzLjg4LTMuMDFjMC4xMS0wLjA5LDAuMjctMC4xMSwwLjQyLTAuMDhsMjcuMDEsNy41MmMwLjI5LDAuMTIsMC41OCwwLjQzLDAuNDMsMC43bC0yLjY0LDQuMzEgICAgIGMtMC4xMSwwLjE3LTAuMzIsMC4yNS0wLjUxLDAuMTlMMjguOSwzOXoiLz4mI3hhOwkJPC9nPiYjeGE7CQk8ZyBpZD0ic2hhcGUzNjYwLTEwIiB0cmFuc2Zvcm09InRyYW5zbGF0ZSgxMC42NzUyLC0xMS43OTEyKSI+JiN4YTsJCQk8dGl0bGUgaWQ9InRpdGxlMTIyMjkiPnBhdGgyNTUyMjwvdGl0bGU+JiN4YTsJCQkmI3hhOwkJCQk8cGF0aCBpZD0icGF0aDEyMjMxIiBpbmtzY2FwZTpjb25uZWN0b3ItY3VydmF0dXJlPSIwIiBzdHlsZT0iZmlsbDojNTU2QThBO3N0cm9rZTojNTU2QThBO3N0cm9rZS13aWR0aDowLjg0NjE7c3Ryb2tlLW1pdGVybGltaXQ6MzsiIGQ9IiAgICAgTTMwLjUyLDM5Ljc5TDAsMzEuNTZsMi4wMi0xNy44NGMwLjAyLTAuMjQsMC4yNS0wLjQxLDAuNDgtMC4zN2wzMS4wNiw1LjljMC4yMiwwLjAzLDAuMzcsMC4yMiwwLjM0LDAuNDVsLTMuMzMsMjAuMDYgICAgIEMzMC41NywzOS43NiwzMC41NCwzOS44LDMwLjUyLDM5Ljc5eiIvPiYjeGE7CQk8L2c+JiN4YTsJCTxnIGlkPSJzaGFwZTM2NjEtMTIiIHRyYW5zZm9ybT0idHJhbnNsYXRlKDEyLjAxNjcsLTEyLjgzOTYpIj4mI3hhOwkJCTx0aXRsZSBpZD0idGl0bGUxMjIzNCI+cGF0aDI1NTI0PC90aXRsZT4mI3hhOwkJCTxwYXRoIGlkPSJwYXRoMTIyMzYiIGlua3NjYXBlOmNvbm5lY3Rvci1jdXJ2YXR1cmU9IjAiIHN0eWxlPSJmaWxsOiMxQTlCRjU7IiBkPSJNMjguMTUsMzkuOEwwLDMyLjM5bDEuODctMTYuMDcgICAgIGMwLjAyLTAuMjMsMC4yMy0wLjM2LDAuNDUtMC4zNGwyOC41LDUuNTZjMC4yLDAuMDMsMC4zNCwwLjIyLDAuMywwLjQyTDI4LjE4LDM5LjhIMjguMTV6Ii8+JiN4YTsJCTwvZz4mI3hhOwkJPGcgaWQ9InNoYXBlMzY2Mi0xNCIgdHJhbnNmb3JtPSJ0cmFuc2xhdGUoMTQuMTI0NywtMTIuODM5NikiPiYjeGE7CQkJPHRpdGxlIGlkPSJ0aXRsZTEyMjM5Ij5wYXRoMjU1MjY8L3RpdGxlPiYjeGE7CQkJPHBhdGggaWQ9InBhdGgxMjI0MSIgaW5rc2NhcGU6Y29ubmVjdG9yLWN1cnZhdHVyZT0iMCIgc3R5bGU9ImZpbGw6IzAwNDU3ODtmaWxsLW9wYWNpdHk6MC4yOyIgZD0iTTAsMzEuNTJsMi42NywyLjE1bDIzLjM3LDYuMTMgICAgIGwwLjMyLTEuODNsMi4zMS0xNC4wMWwtMS40Ny0xLjEzTDAsMzEuNTJ6Ii8+JiN4YTsJCQk8cGF0aCBpZD0icGF0aDEyMjQzIiBpbmtzY2FwZTpjb25uZWN0b3ItY3VydmF0dXJlPSIwIiBzdHlsZT0iZmlsbDpub25lOyIgZD0iTTAsMzEuNTJsMi42NywyLjE1bDIzLjM3LDYuMTNsMC4zMi0xLjgzICAgICBsMi4zMS0xNC4wMWwtMS40Ny0xLjEzIi8+JiN4YTsJCTwvZz4mI3hhOwk8L2c+JiN4YTs8L2c+JiN4YTs8L3N2Zz4=;" vertex="1" parent="1">
          <mxGeometry x="39.230000000000004" y="811" width="71.54" height="62" as="geometry" />
        </mxCell>
        <mxCell id="Oi9bZ2Bt2lVT0VfedK1E-8" value="2" style="ellipse;whiteSpace=wrap;html=1;aspect=fixed;fillColor=#4D9900;strokeColor=none;labelBackgroundColor=none;" vertex="1" parent="1">
          <mxGeometry x="29.5" y="585" width="23" height="23" as="geometry" />
        </mxCell>
        <mxCell id="Oi9bZ2Bt2lVT0VfedK1E-9" value="&lt;span&gt;PC&lt;/span&gt;" style="text;html=1;align=left;verticalAlign=top;spacingTop=-4;fontSize=14;labelBackgroundColor=none;whiteSpace=wrap;" vertex="1" parent="1">
          <mxGeometry x="64" y="670.5" width="24.5" height="20" as="geometry" />
        </mxCell>
        <mxCell id="Oi9bZ2Bt2lVT0VfedK1E-10" value="Movil" style="text;html=1;align=left;verticalAlign=top;spacingTop=-4;fontSize=14;labelBackgroundColor=none;whiteSpace=wrap;" vertex="1" parent="1">
          <mxGeometry x="59.76" y="773.5" width="24.5" height="20" as="geometry" />
        </mxCell>
        <mxCell id="Oi9bZ2Bt2lVT0VfedK1E-11" value="Laptop" style="text;html=1;align=left;verticalAlign=top;spacingTop=-4;fontSize=14;labelBackgroundColor=none;whiteSpace=wrap;" vertex="1" parent="1">
          <mxGeometry x="52.500000000000036" y="873" width="24.5" height="20" as="geometry" />
        </mxCell>
        <mxCell id="Oi9bZ2Bt2lVT0VfedK1E-13" style="edgeStyle=elbowEdgeStyle;rounded=0;orthogonalLoop=1;jettySize=auto;elbow=vertical;html=1;exitX=0.998;exitY=0.18;exitDx=0;exitDy=0;exitPerimeter=0;strokeColor=#808080;" edge="1" parent="1">
          <mxGeometry relative="1" as="geometry">
            <mxPoint x="120" y="763.25" as="sourcePoint" />
            <mxPoint x="200" y="762" as="targetPoint" />
            <Array as="points" />
          </mxGeometry>
        </mxCell>
        <mxCell id="Oi9bZ2Bt2lVT0VfedK1E-14" style="edgeStyle=elbowEdgeStyle;rounded=0;orthogonalLoop=1;jettySize=auto;elbow=vertical;html=1;exitX=0.998;exitY=0.18;exitDx=0;exitDy=0;exitPerimeter=0;strokeColor=#808080;" edge="1" parent="1">
          <mxGeometry relative="1" as="geometry">
            <mxPoint x="120" y="874" as="sourcePoint" />
            <mxPoint x="200" y="873" as="targetPoint" />
            <Array as="points" />
          </mxGeometry>
        </mxCell>
        <mxCell id="Oi9bZ2Bt2lVT0VfedK1E-15" style="edgeStyle=orthogonalEdgeStyle;rounded=0;orthogonalLoop=1;jettySize=auto;elbow=vertical;html=1;exitX=0.998;exitY=0.18;exitDx=0;exitDy=0;exitPerimeter=0;strokeColor=#808080;curved=1;" edge="1" parent="1">
          <mxGeometry relative="1" as="geometry">
            <mxPoint x="120" y="641" as="sourcePoint" />
            <mxPoint x="200" y="640" as="targetPoint" />
          </mxGeometry>
        </mxCell>
        <mxCell id="Oi9bZ2Bt2lVT0VfedK1E-16" value="" style="shape=image;verticalLabelPosition=bottom;labelBackgroundColor=#ffffff;verticalAlign=top;aspect=fixed;imageAspect=0;image=data:image/svg+xml,PHN2ZyB4bWxuczpjYz0iaHR0cDovL2NyZWF0aXZlY29tbW9ucy5vcmcvbnMjIiB4bWxuczpkYz0iaHR0cDovL3B1cmwub3JnL2RjL2VsZW1lbnRzLzEuMS8iIHhtbG5zOmlua3NjYXBlPSJodHRwOi8vd3d3Lmlua3NjYXBlLm9yZy9uYW1lc3BhY2VzL2lua3NjYXBlIiB4bWxuczpyZGY9Imh0dHA6Ly93d3cudzMub3JnLzE5OTkvMDIvMjItcmRmLXN5bnRheC1ucyMiIHhtbG5zOnNvZGlwb2RpPSJodHRwOi8vc29kaXBvZGkuc291cmNlZm9yZ2UubmV0L0RURC9zb2RpcG9kaS0wLmR0ZCIgeG1sbnM6c3ZnPSJodHRwOi8vd3d3LnczLm9yZy8yMDAwL3N2ZyIgeG1sbnM9Imh0dHA6Ly93d3cudzMub3JnLzIwMDAvc3ZnIiB4bWxuczp4bGluaz0iaHR0cDovL3d3dy53My5vcmcvMTk5OS94bGluayIgdmVyc2lvbj0iMS4xIiBpZD0ic3ZnMTY3NTAwIiBpbmtzY2FwZTp2ZXJzaW9uPSIwLjkyLjMgKDI0MDU1NDYsIDIwMTgtMDMtMTEpIiBzb2RpcG9kaTpkb2NuYW1lPSJtb25pdG9yaW5nLnN2ZyIgeD0iMHB4IiB5PSIwcHgiIHZpZXdCb3g9IjAgMCAzOS43NSAzNy4xOCIgc3R5bGU9ImVuYWJsZS1iYWNrZ3JvdW5kOm5ldyAwIDAgMzkuNzUgMzcuMTg7IiB4bWw6c3BhY2U9InByZXNlcnZlIj4mI3hhOzxzb2RpcG9kaTpuYW1lZHZpZXcgYm9yZGVyY29sb3I9IiM2NjY2NjYiIGJvcmRlcm9wYWNpdHk9IjEiIGZpdC1tYXJnaW4tYm90dG9tPSIwIiBmaXQtbWFyZ2luLWxlZnQ9IjAiIGZpdC1tYXJnaW4tcmlnaHQ9IjAiIGZpdC1tYXJnaW4tdG9wPSIwIiBncmlkdG9sZXJhbmNlPSIxMCIgZ3VpZGV0b2xlcmFuY2U9IjEwIiBpZD0ibmFtZWR2aWV3MTY3NTAyIiBpbmtzY2FwZTpjdXJyZW50LWxheWVyPSJzdmcxNjc1MDAiIGlua3NjYXBlOmN4PSIyNi41MDM1MzUiIGlua3NjYXBlOmN5PSIyNC43ODQ2NjkiIGlua3NjYXBlOnBhZ2VvcGFjaXR5PSIwIiBpbmtzY2FwZTpwYWdlc2hhZG93PSIyIiBpbmtzY2FwZTp3aW5kb3ctaGVpZ2h0PSIxMDE3IiBpbmtzY2FwZTp3aW5kb3ctbWF4aW1pemVkPSIxIiBpbmtzY2FwZTp3aW5kb3ctd2lkdGg9IjE5MjAiIGlua3NjYXBlOndpbmRvdy14PSItOCIgaW5rc2NhcGU6d2luZG93LXk9Ii04IiBpbmtzY2FwZTp6b29tPSIxNy40ODc4MTYiIG9iamVjdHRvbGVyYW5jZT0iMTAiIHBhZ2Vjb2xvcj0iI2ZmZmZmZiIgc2hvd2dyaWQ9ImZhbHNlIj4mI3hhOwk8L3NvZGlwb2RpOm5hbWVkdmlldz4mI3hhOzxnIGlkPSJnMTY3NDk4Ij4mI3hhOwk8dGl0bGUgaWQ9InRpdGxlMTY3NDkxIj5QYWdlLTE8L3RpdGxlPiYjeGE7CTxnIGlkPSJzaGFwZTk2MDktMSI+JiN4YTsJCTx0aXRsZSBpZD0idGl0bGUxNjc0OTMiPk1vbml0b3Jpbmc8L3RpdGxlPiYjeGE7CQk8cGF0aCBpZD0icGF0aDE2NzQ5NSIgaW5rc2NhcGU6Y29ubmVjdG9yLWN1cnZhdHVyZT0iMCIgc3R5bGU9ImZpbGw6IzNGNTc2NTsiIGQ9Ik05LjQ1LDI4LjY4Yy0yLjI2LDEuOTktMS45MSw0LjMzLTEuOCw1LjU1ICAgIGMxLjc2LDEuNSwxMS40OCwyLjgsMTQuNjYsMi45NWMxLjExLTAuODgsMi4xLTEuNTcsMi41Mi0xLjkxbC0wLjA0LTAuMzFjLTEuMTgtMC4zLTIuMDYtMC4zLTMuMjUtMC41NyAgICBjLTAuMDgsMC43MywwLjMxLDEuNzItMC4xOSwxLjY0Yy0wLjE1LTEuOTEtMC40Mi0zLjcxLDIuMDctNS4zMkw5LjQ1LDI4LjY4eiBNMjYuODIsMTcuNjVsNC4wMiwwLjVsLTAuNDYsNC44M2wtNC4xNy0wLjY5ICAgIEwyNi44MiwxNy42NXogTTQuOTcsMTYuMTZjLTAuMjMtMC4wNC0wLjQ2LDAuMTUtMC40NiwwLjQyYy0wLjAzLDAuMjMsMC4xNiwwLjQ2LDAuNDMsMC40Nmw3LjYxLDAuNWMwLjIzLDAsMC40Ni0wLjE5LDAuNDYtMC40MiAgICBjMC4wNC0wLjIzLTAuMTUtMC40Ni0wLjQyLTAuNDZMNC45NywxNi4xNnogTTUuMzYsMTQuNGMtMC4yNywwLTAuNDYsMC4xOS0wLjUsMC40MmMwLDAuMjMsMC4xOSwwLjQ2LDAuNDIsMC40Nmw3LjYxLDAuNSAgICBjMC4yNywwLjA0LDAuNDYtMC4xNiwwLjUtMC40MmMwLTAuMjMtMC4xOS0wLjQ2LTAuNDItMC40Nkw1LjM2LDE0LjR6IE01LjU5LDEyLjY4Yy0wLjI3LTAuMDQtMC40NiwwLjE1LTAuNSwwLjM4ICAgIGMwLDAuMjcsMC4xOSwwLjQ2LDAuNDIsMC41bDcuNjEsMC40OWMwLjI3LDAsMC40Ni0wLjE5LDAuNS0wLjQyYzAtMC4yNy0wLjE5LTAuNDYtMC40Mi0wLjQ2TDUuNTksMTIuNjh6IE0xNi40OSwxMi42ICAgIGMtMS4wMywwLjg4LTEuNzYsMi4yNi0xLjkxLDMuODNjLTAuMDgsMS4yNiwwLjIzLDIuNDksMC44NCwzLjQ0bDMuNjMtMi45MUwxNi40OSwxMi42eiBNMjcuNTksMTEuNzJsMy45NCwwLjIzbC0wLjU0LDUuMDkgICAgbC0zLjk0LTAuNDZMMjcuNTksMTEuNzJ6IE0yMC41MSwxMS41NmwtMS4zLDUuNzFsMCwwdjAuMDRsLTMuNiwyLjg3YzAuOCwxLjExLDIuMDMsMS44OCwzLjQxLDEuOTljMi42NywwLjIzLDUuMDUtMS45OSw1LjMxLTQuOTggICAgQzI0LjUyLDE0LjQ3LDIyLjg4LDEyLjA2LDIwLjUxLDExLjU2eiBNNi4zOSw3LjEybDIwLjc0LDAuNzdsLTAuMDgsMC43Nkw2LjMxLDcuODlMNi4zOSw3LjEyeiBNNi41OCw1LjU5bDIwLjc0LDAuNzdsLTAuMDgsMC43NiAgICBMNi41LDYuMzZMNi41OCw1LjU5eiBNNS44OSw0LjQ0TDUuNDMsOC43N2wyMS41MSwwLjk5TDI1LjMzLDIzLjRsNS44NSwwLjkybDIuMTEtMTkuMTlMNS44OSw0LjQ0eiBNNC4yOSwxLjUzTDM1LjUxLDEuOCAgICBsLTMuMDMsMjYuNjFMMS44NCwyNC41OEw0LjI5LDEuNTN6IE0zOS40NSwwSDMuMDZMMCwyNi44NGwzNC44Miw1LjA2bDEuMzQtMC4xMmwzLjU5LTMwLjU1QzM5Ljc5LDAuODQsMzkuNDEsMC4zOCwzOS40NSwweiIvPiYjeGE7CTwvZz4mI3hhOzwvZz4mI3hhOzwvc3ZnPg==;" vertex="1" parent="1">
          <mxGeometry x="230" y="693.5" width="101.08" height="93.5" as="geometry" />
        </mxCell>
        <mxCell id="Oi9bZ2Bt2lVT0VfedK1E-17" value="3" style="ellipse;whiteSpace=wrap;html=1;aspect=fixed;fillColor=#4D9900;strokeColor=none;labelBackgroundColor=none;" vertex="1" parent="1">
          <mxGeometry x="321" y="670.5" width="23" height="23" as="geometry" />
        </mxCell>
        <mxCell id="yIlqXNv4PA9Dnh1hxRCn-52" value="" style="rounded=0;whiteSpace=wrap;html=1;fillColor=#66B2FF;strokeColor=none;fontColor=#333333;" parent="1" vertex="1">
          <mxGeometry x="490" y="619.5" width="349.5" height="240" as="geometry" />
        </mxCell>
        <mxCell id="Oi9bZ2Bt2lVT0VfedK1E-23" value="" style="shape=image;verticalLabelPosition=bottom;labelBackgroundColor=#ffffff;verticalAlign=top;aspect=fixed;imageAspect=0;image=data:image/svg+xml,PHN2ZyB4bWxuczpjYz0iaHR0cDovL2NyZWF0aXZlY29tbW9ucy5vcmcvbnMjIiB4bWxuczpkYz0iaHR0cDovL3B1cmwub3JnL2RjL2VsZW1lbnRzLzEuMS8iIHhtbG5zOmlua3NjYXBlPSJodHRwOi8vd3d3Lmlua3NjYXBlLm9yZy9uYW1lc3BhY2VzL2lua3NjYXBlIiB4bWxuczpyZGY9Imh0dHA6Ly93d3cudzMub3JnLzE5OTkvMDIvMjItcmRmLXN5bnRheC1ucyMiIHhtbG5zOnNvZGlwb2RpPSJodHRwOi8vc29kaXBvZGkuc291cmNlZm9yZ2UubmV0L0RURC9zb2RpcG9kaS0wLmR0ZCIgeG1sbnM6c3ZnPSJodHRwOi8vd3d3LnczLm9yZy8yMDAwL3N2ZyIgeG1sbnM9Imh0dHA6Ly93d3cudzMub3JnLzIwMDAvc3ZnIiB4bWxuczp4bGluaz0iaHR0cDovL3d3dy53My5vcmcvMTk5OS94bGluayIgdmVyc2lvbj0iMS4xIiBpZD0ic3ZnMTYxMjE2IiBpbmtzY2FwZTp2ZXJzaW9uPSIwLjkyLjMgKDI0MDU1NDYsIDIwMTgtMDMtMTEpIiBzb2RpcG9kaTpkb2NuYW1lPSJoeWJyaWRfY2xvdWQuc3ZnIiB4PSIwcHgiIHk9IjBweCIgdmlld0JveD0iMCAwIDUwLjg2IDQzLjg2IiBzdHlsZT0iZW5hYmxlLWJhY2tncm91bmQ6bmV3IDAgMCA1MC44NiA0My44NjsiIHhtbDpzcGFjZT0icHJlc2VydmUiPiYjeGE7PHNvZGlwb2RpOm5hbWVkdmlldyBib3JkZXJjb2xvcj0iIzY2NjY2NiIgYm9yZGVyb3BhY2l0eT0iMSIgZml0LW1hcmdpbi1ib3R0b209IjAiIGZpdC1tYXJnaW4tbGVmdD0iMCIgZml0LW1hcmdpbi1yaWdodD0iMCIgZml0LW1hcmdpbi10b3A9IjAiIGdyaWR0b2xlcmFuY2U9IjEwIiBndWlkZXRvbGVyYW5jZT0iMTAiIGlkPSJuYW1lZHZpZXcxNjEyMTgiIGlua3NjYXBlOmN1cnJlbnQtbGF5ZXI9InN2ZzE2MTIxNiIgaW5rc2NhcGU6Y3g9IjMzLjkxMDY1NSIgaW5rc2NhcGU6Y3k9IjI5LjIzNzE5MiIgaW5rc2NhcGU6cGFnZW9wYWNpdHk9IjAiIGlua3NjYXBlOnBhZ2VzaGFkb3c9IjIiIGlua3NjYXBlOndpbmRvdy1oZWlnaHQ9IjEwMTciIGlua3NjYXBlOndpbmRvdy1tYXhpbWl6ZWQ9IjEiIGlua3NjYXBlOndpbmRvdy13aWR0aD0iMTkyMCIgaW5rc2NhcGU6d2luZG93LXg9Ii04IiBpbmtzY2FwZTp3aW5kb3cteT0iLTgiIGlua3NjYXBlOnpvb209IjE0LjgyNDE2MiIgb2JqZWN0dG9sZXJhbmNlPSIxMCIgcGFnZWNvbG9yPSIjZmZmZmZmIiBzaG93Z3JpZD0iZmFsc2UiPiYjeGE7CTwvc29kaXBvZGk6bmFtZWR2aWV3PiYjeGE7PGcgaWQ9ImcxNjEyMTQiIHRyYW5zZm9ybT0idHJhbnNsYXRlKDAsOWUtNCkiPiYjeGE7CTx0aXRsZSBpZD0idGl0bGUxNjExODQiPlBhZ2UtMTwvdGl0bGU+JiN4YTsJPGcgaWQ9Imdyb3VwODU3NC0xIj4mI3hhOwkJPHRpdGxlIGlkPSJ0aXRsZTE2MTE4NiI+SHlicmlkIENsb3VkPC90aXRsZT4mI3hhOwkJPGcgaWQ9InNoYXBlODU3NS0yIiB0cmFuc2Zvcm09InRyYW5zbGF0ZSgyMS40ODE5KSI+JiN4YTsJCQk8dGl0bGUgaWQ9InRpdGxlMTYxMTg4Ij5TaGVldC44NTc1PC90aXRsZT4mI3hhOwkJCTxwYXRoIGlkPSJwYXRoMTYxMTkwIiBpbmtzY2FwZTpjb25uZWN0b3ItY3VydmF0dXJlPSIwIiBzdHlsZT0iZmlsbDojM0Y1NzY1OyIgZD0iTTYuMTIsMjQuMzdINC4wNnYtMi4wM2gyLjA2VjI0LjM3eiAgICAgIE0xMC4wNiwyNC4zN2gyLjA3di0yLjAzaC0yLjA3TDEwLjA2LDI0LjM3eiBNNi4xMiwyOC4ySDQuMDZ2Mi4wM2gyLjA2VjI4LjJ6IE0xMC4wNiwzMC4yM2gyLjA3VjI4LjJoLTIuMDdMMTAuMDYsMzAuMjN6ICAgICAgTTYuMTIsMTYuNTZINC4wNnYxLjk1aDIuMDZWMTYuNTZ6IE0xMC4wNiwxOC41MWgyLjA3di0xLjk1aC0yLjA3VjE4LjUxeiBNMTYuMTUsMTguNTFoMS45OXYtMS45NWgtMS45OVYxOC41MXogTTYuMTIsMzQuMDYgICAgIEg0LjA2djEuOTJoMi4wNlYzNC4wNnogTTEwLjA2LDM1Ljk4aDIuMDd2LTEuOTJoLTIuMDdMMTAuMDYsMzUuOTh6IE0yOS4zOCwyMi4zNHYyMS41MmgtNy4yM2gtNi44MUgwVjEyLjYyaDIyLjE1djkuNzJIMjkuMzh6ICAgICAgTTE1LjM0LDQxLjg3VjIyLjM0aDQuODZ2LTcuNzdIMi4xdjI3LjNIMTUuMzR6IE0yNy42MiwyNC4wN0gxNy4xdjE4LjExaDEwLjUyVjI0LjA3eiBNMjAuNjIsMzAuNjVoLTEuNzZ2MS42OWgxLjc2VjMwLjY1eiAgICAgIE0yNS42NywzMC42NWgtMS41M3YxLjY5aDEuNTNWMzAuNjV6IE0yMC42MiwzNS41OWgtMS43NnYxLjczaDEuNzZWMzUuNTl6IE0yNS42NywzNS41OWgtMS41M3YxLjczaDEuNTNWMzUuNTl6IE0yMC42MiwyNS41NiAgICAgaC0xLjc2djEuNzJoMS43NlYyNS41NnogTTI1LjY3LDI1LjU2aC0xLjUzdjEuNzJoMS41M1YyNS41NnoiLz4mI3hhOwkJPC9nPiYjeGE7CQk8ZyBpZD0ic2hhcGU4NTc2LTQiIHRyYW5zZm9ybT0idHJhbnNsYXRlKDExLjA3NTEsLTE4LjM4MDkpIj4mI3hhOwkJCTx0aXRsZSBpZD0idGl0bGUxNjExOTMiPlNoZWV0Ljg1NzY8L3RpdGxlPiYjeGE7CQkJPHBhdGggaWQ9InBhdGgxNjExOTUiIGlua3NjYXBlOmNvbm5lY3Rvci1jdXJ2YXR1cmU9IjAiIHN0eWxlPSJmaWxsOiMwMDc4RDc7IiBkPSJNMCwzMy43NWMwLTUuNTUsNS43OC0xMC4xLDEyLjg2LTEwLjEgICAgIGM3LjExLDAsMTIuODUsNC41NSwxMi44NSwxMC4xYzAsNS42LTUuNzQsMTAuMTEtMTIuODUsMTAuMTFDNS43OCw0My44NiwwLDM5LjM1LDAsMzMuNzV6Ii8+JiN4YTsJCTwvZz4mI3hhOwkJPGcgaWQ9InNoYXBlODU3Ny02IiB0cmFuc2Zvcm09InRyYW5zbGF0ZSgwLjA1NjA4MzYsLTE4LjM4MDkpIj4mI3hhOwkJCTx0aXRsZSBpZD0idGl0bGUxNjExOTgiPlNoZWV0Ljg1Nzc8L3RpdGxlPiYjeGE7CQkJPHBhdGggaWQ9InBhdGgxNjEyMDAiIGlua3NjYXBlOmNvbm5lY3Rvci1jdXJ2YXR1cmU9IjAiIHN0eWxlPSJmaWxsOiMwMDc4RDc7IiBkPSJNMCwzNS45YzAtNC4zNyw0Ljk0LTcuOTcsMTEuMDItNy45NyAgICAgYzYuMTIsMCwxMS4wMiwzLjYsMTEuMDIsNy45N2MwLDQuNC00LjksNy45Ni0xMS4wMiw3Ljk2QzQuOTQsNDMuODYsMCw0MC4zLDAsMzUuOXoiLz4mI3hhOwkJPC9nPiYjeGE7CQk8ZyBpZD0ic2hhcGU4NTc4LTgiIHRyYW5zZm9ybT0idHJhbnNsYXRlKDEwLjQ2MjksLTI2LjM0NikiPiYjeGE7CQkJPHRpdGxlIGlkPSJ0aXRsZTE2MTIwMyI+U2hlZXQuODU3ODwvdGl0bGU+JiN4YTsJCQk8cGF0aCBpZD0icGF0aDE2MTIwNSIgaW5rc2NhcGU6Y29ubmVjdG9yLWN1cnZhdHVyZT0iMCIgc3R5bGU9ImZpbGw6IzAwNzhENzsiIGQ9Ik0wLDM1LjU5YzAtNC41NSwzLjYtOC4yNyw3Ljk2LTguMjcgICAgIGM0LjQsMCw3Ljk2LDMuNzIsNy45Niw4LjI3YzAsNC42LTMuNTYsOC4yNy03Ljk2LDguMjdDMy42LDQzLjg2LDAsNDAuMTksMCwzNS41OXoiLz4mI3hhOwkJPC9nPiYjeGE7CQk8ZyBpZD0ic2hhcGU4NTc5LTEwIiB0cmFuc2Zvcm09InRyYW5zbGF0ZSgwLC0xOC4xMzA5KSI+JiN4YTsJCQk8dGl0bGUgaWQ9InRpdGxlMTYxMjA4Ij5TaGVldC44NTc5PC90aXRsZT4mI3hhOwkJCTxwYXRoIGlkPSJwYXRoMTYxMjEwIiBpbmtzY2FwZTpjb25uZWN0b3ItY3VydmF0dXJlPSIwIiBzdHlsZT0iZmlsbDojM0Y1NzY1OyIgZD0iTTguMTksNDMuODZjMTkuMjQsMCwxOS4yNCwwLDE5LjI0LDAgICAgIGM1LjU1LDAsOS45MS00LjM2LDkuOTEtOS45MWMwLTUuMjktNC4wNS05LjY1LTkuMzMtOS45NmMtMS43My0zLjQ4LTUuMjUtNS44Ni05LjM0LTUuODZjLTUuMjQsMC05LjkxLDQuMS0xMC40OCw5LjM4bDAsMCAgICAgQzMuODMsMjcuNTEsMCwzMS4zLDAsMzUuNzFDMCw0MC4zOCwzLjgzLDQzLjg2LDguMTksNDMuODZ6IE04LjE5LDI5Ljg1YzAuMywwLDAuNTcsMCwwLjg4LDAuMzFjMS40NSwwLDEuNDUsMCwxLjQ1LDAgICAgIGMwLTEuNSwwLTEuNSwwLTEuNWMwLTQuMzYsMy43OS04LjE1LDguMTUtOC4xNWMzLjUyLDAsNi40MywyLjAyLDcuNjEsNS4yNGMwLjI3LDAuNTgsMC4yNywwLjU4LDAuMjcsMC41OGMwLjg4LDAsMC44OCwwLDAuODgsMCAgICAgYzQuMSwwLDcuNTgsMy41Miw3LjU4LDcuNjJjMCw0LjM2LTMuNDgsNy41OC03LjU4LDcuNThjLTE5LjI0LDAtMTkuMjQsMC0xOS4yNCwwYy0zLjIyLDAtNS44Ni0yLjYxLTUuODYtNS44MiAgICAgQzIuMzMsMzIuNDksNC45NywyOS44NSw4LjE5LDI5Ljg1eiIvPiYjeGE7CQk8L2c+JiN4YTsJPC9nPiYjeGE7PC9nPiYjeGE7PC9zdmc+;" vertex="1" parent="1">
          <mxGeometry x="662.72" y="699" width="120.55" height="104" as="geometry" />
        </mxCell>
        <mxCell id="Oi9bZ2Bt2lVT0VfedK1E-25" value="" style="shape=image;verticalLabelPosition=bottom;labelBackgroundColor=#ffffff;verticalAlign=top;aspect=fixed;imageAspect=0;image=data:image/svg+xml,PHN2ZyB4bWxuczpjYz0iaHR0cDovL2NyZWF0aXZlY29tbW9ucy5vcmcvbnMjIiB4bWxuczpkYz0iaHR0cDovL3B1cmwub3JnL2RjL2VsZW1lbnRzLzEuMS8iIHhtbG5zOmlua3NjYXBlPSJodHRwOi8vd3d3Lmlua3NjYXBlLm9yZy9uYW1lc3BhY2VzL2lua3NjYXBlIiB4bWxuczpyZGY9Imh0dHA6Ly93d3cudzMub3JnLzE5OTkvMDIvMjItcmRmLXN5bnRheC1ucyMiIHhtbG5zOnNvZGlwb2RpPSJodHRwOi8vc29kaXBvZGkuc291cmNlZm9yZ2UubmV0L0RURC9zb2RpcG9kaS0wLmR0ZCIgeG1sbnM6c3ZnPSJodHRwOi8vd3d3LnczLm9yZy8yMDAwL3N2ZyIgeG1sbnM9Imh0dHA6Ly93d3cudzMub3JnLzIwMDAvc3ZnIiB4bWxuczp4bGluaz0iaHR0cDovL3d3dy53My5vcmcvMTk5OS94bGluayIgdmVyc2lvbj0iMS4xIiBpZD0ic3ZnNjM1MzQiIGlua3NjYXBlOnZlcnNpb249IjAuOTIuMyAoMjQwNTU0NiwgMjAxOC0wMy0xMSkiIHNvZGlwb2RpOmRvY25hbWU9ImF6dXJlX3NxbF9zdHJldGNoX2RhdGFiYXNlLnN2ZyIgeD0iMHB4IiB5PSIwcHgiIHZpZXdCb3g9IjAgMCA0NC40NyAzMC43NiIgc3R5bGU9ImVuYWJsZS1iYWNrZ3JvdW5kOm5ldyAwIDAgNDQuNDcgMzAuNzY7IiB4bWw6c3BhY2U9InByZXNlcnZlIj4mI3hhOzxzb2RpcG9kaTpuYW1lZHZpZXcgYm9yZGVyY29sb3I9IiM2NjY2NjYiIGJvcmRlcm9wYWNpdHk9IjEiIGZpdC1tYXJnaW4tYm90dG9tPSIwIiBmaXQtbWFyZ2luLWxlZnQ9IjAiIGZpdC1tYXJnaW4tcmlnaHQ9IjAiIGZpdC1tYXJnaW4tdG9wPSIwIiBncmlkdG9sZXJhbmNlPSIxMCIgZ3VpZGV0b2xlcmFuY2U9IjEwIiBpZD0ibmFtZWR2aWV3NjM1MzYiIGlua3NjYXBlOmN1cnJlbnQtbGF5ZXI9InN2ZzYzNTM0IiBpbmtzY2FwZTpjeD0iMzguMjIxNjUzIiBpbmtzY2FwZTpjeT0iMTYuNzYzNjc3IiBpbmtzY2FwZTpwYWdlb3BhY2l0eT0iMCIgaW5rc2NhcGU6cGFnZXNoYWRvdz0iMiIgaW5rc2NhcGU6d2luZG93LWhlaWdodD0iMTAxNyIgaW5rc2NhcGU6d2luZG93LW1heGltaXplZD0iMSIgaW5rc2NhcGU6d2luZG93LXdpZHRoPSIxOTIwIiBpbmtzY2FwZTp3aW5kb3cteD0iLTgiIGlua3NjYXBlOndpbmRvdy15PSItOCIgaW5rc2NhcGU6em9vbT0iMTMuMzYxNjMyIiBvYmplY3R0b2xlcmFuY2U9IjEwIiBwYWdlY29sb3I9IiNmZmZmZmYiIHNob3dncmlkPSJmYWxzZSI+JiN4YTsJPC9zb2RpcG9kaTpuYW1lZHZpZXc+JiN4YTs8ZyBpZD0iZzYzNTMyIiB0cmFuc2Zvcm09InRyYW5zbGF0ZSgtMS4yMjQwMjQ4LC0yLjQyMTM0NCkiPiYjeGE7CTx0aXRsZSBpZD0idGl0bGU2MzQ4NiI+UGFnZS0xPC90aXRsZT4mI3hhOwk8ZyBpZD0iZ3JvdXA1NjU5LTEiIHRyYW5zZm9ybT0idHJhbnNsYXRlKDEuMjI0LC0xLjIyNCkiPiYjeGE7CQk8dGl0bGUgaWQ9InRpdGxlNjM0ODgiPkF6dXJlIFNRTCBTdHJldGNoIERhdGFiYXNlPC90aXRsZT4mI3hhOwkJPGcgaWQ9InNoYXBlNTY2MC0yIiB0cmFuc2Zvcm09InRyYW5zbGF0ZSgwLjgwNjY3OSwtMi4wOTczNikiPiYjeGE7CQkJPHRpdGxlIGlkPSJ0aXRsZTYzNDkwIj5TaGVldC41NjYwPC90aXRsZT4mI3hhOwkJCTxwYXRoIGlkPSJwYXRoNjM0OTIiIGlua3NjYXBlOmNvbm5lY3Rvci1jdXJ2YXR1cmU9IjAiIHN0eWxlPSJmaWxsOiNEREREREQ7IiBkPSJNMTAuNzgsMzQuNDFoMjcuNDVjMCwwLDQuODUtMC4wNiw1LjM1LTMuMTYgICAgIGMwLjY0LTMuOTItMi44LTQuMjYtMi44LTQuMjZzMy43Ny00LjUzLDAuODktOS4yM2MtMy40Ny01LjY5LTkuNDMtMi41Ni05LjQzLTIuNTZzLTEuMjYtMTEuODgtMTUtOS4wMSAgICAgQzUuOSw4LjU2LDcuODgsMjAuOTgsNy44OCwyMC45OHMtNi42Ni0xLjY4LTcuMjcsNS41M0MwLDMzLjcsMTAuNzgsMzQuNDEsMTAuNzgsMzQuNDF6Ii8+JiN4YTsJCTwvZz4mI3hhOwkJPGcgaWQ9InNoYXBlNTY2MS00Ij4mI3hhOwkJCTx0aXRsZSBpZD0idGl0bGU2MzQ5NSI+U2hlZXQuNTY2MTwvdGl0bGU+JiN4YTsJCQk8cGF0aCBpZD0icGF0aDYzNDk3IiBpbmtzY2FwZTpjb25uZWN0b3ItY3VydmF0dXJlPSIwIiBzdHlsZT0iZmlsbDojRURCNTFEOyIgZD0iTTkuNDksMTIuNjdIMHYxOC4yOWMwLDEuODgsNC4xOCwzLjQxLDkuNCwzLjQzICAgICB2MC4wMmgwLjAxYzAuMDIsMCwwLjA4LTAuMDIsMC4wOC0wLjAydjAuMDJoMC4wMmM1LjIzLDAsOS40Ny0xLjU1LDkuNDctMy40NHYtMTguM0g5LjQ5eiIvPiYjeGE7CQk8L2c+JiN4YTsJCTxnIGlkPSJncm91cDU2NjItNiIgdHJhbnNmb3JtPSJ0cmFuc2xhdGUoMC4wMjg0NzEsLTAuMDI4NDcxKSI+JiN4YTsJCQk8dGl0bGUgaWQ9InRpdGxlNjM1MDAiPlNoZWV0LjU2NjI8L3RpdGxlPiYjeGE7CQkJPGcgaWQ9InNoYXBlNTY2My03IiB0cmFuc2Zvcm09InRyYW5zbGF0ZSgxNC4xMTIxLC02LjQ1MzQzKSI+JiN4YTsJCQkJPHRpdGxlIGlkPSJ0aXRsZTYzNTAyIj5TaGVldC41NjYzPC90aXRsZT4mI3hhOwkJCQk8cGF0aCBpZD0icGF0aDYzNTA0IiBpbmtzY2FwZTpjb25uZWN0b3ItY3VydmF0dXJlPSIwIiBzdHlsZT0iZmlsbDojRURCNTFEOyIgZD0iTTAsMjYuNTVoMTIuMzR2LTMuNThsNy4yNSw1LjYxbC03LjI1LDUuODMgICAgICB2LTMuNzhIMFYyNi41NXoiLz4mI3hhOwkJCTwvZz4mI3hhOwkJCTxnIGlkPSJncm91cDU2NjQtOSI+JiN4YTsJCQkJPHRpdGxlIGlkPSJ0aXRsZTYzNTA3Ij5TaGVldC41NjY0PC90aXRsZT4mI3hhOwkJCQk8ZyBpZD0ic2hhcGU1NjY1LTEwIj4mI3hhOwkJCQkJPHRpdGxlIGlkPSJ0aXRsZTYzNTA5Ij5TaGVldC41NjY1PC90aXRsZT4mI3hhOwkJCQkJPHBhdGggaWQ9InBhdGg2MzUxMSIgaW5rc2NhcGU6Y29ubmVjdG9yLWN1cnZhdHVyZT0iMCIgc3R5bGU9ImZpbGw6I0ZGRkZGRjtmaWxsLW9wYWNpdHk6MC4zOyIgZD0iTTAsMTIuNzN2MTguMjUgICAgICAgYzAsMS44OSw0LjI0LDMuNDMsOS40NywzLjQzVjEyLjczSDB6Ii8+JiN4YTsJCQkJPC9nPiYjeGE7CQkJCTxnIGlkPSJzaGFwZTU2NjYtMTIiIHRyYW5zZm9ybT0idHJhbnNsYXRlKDAuMDA5NDkwMzQsLTE4LjI0OTkpIj4mI3hhOwkJCQkJPHRpdGxlIGlkPSJ0aXRsZTYzNTE0Ij5TaGVldC41NjY2PC90aXRsZT4mI3hhOwkJCQkJPHBhdGggaWQ9InBhdGg2MzUxNiIgaW5rc2NhcGU6Y29ubmVjdG9yLWN1cnZhdHVyZT0iMCIgc3R5bGU9ImZpbGw6I0ZGRkZGRjsiIGQ9Ik0xOC45NCwzMC45OGMwLDEuODktNC4yNCwzLjQzLTkuNDcsMy40MyAgICAgICBTMCwzMi44NywwLDMwLjk4YzAtMS45LDQuMjQtMy40NCw5LjQ3LTMuNDRDMTQuNywyNy41NSwxOC45NCwyOS4wOSwxOC45NCwzMC45OHoiLz4mI3hhOwkJCQk8L2c+JiN4YTsJCQkJPGcgaWQ9InNoYXBlNTY2Ny0xNCIgdHJhbnNmb3JtPSJ0cmFuc2xhdGUoMS45NDU1MiwtMTkuNjE2NSkiPiYjeGE7CQkJCQk8dGl0bGUgaWQ9InRpdGxlNjM1MTkiPlNoZWV0LjU2Njc8L3RpdGxlPiYjeGE7CQkJCQk8cGF0aCBpZD0icGF0aDYzNTIxIiBpbmtzY2FwZTpjb25uZWN0b3ItY3VydmF0dXJlPSIwIiBzdHlsZT0iZmlsbDojN0ZCQTAwOyIgZD0iTTE1LjA3LDMyLjE0YzAsMS4yNi0zLjM4LDIuMjctNy41MywyLjI3ICAgICAgIEMzLjM3LDM0LjQxLDAsMzMuNCwwLDMyLjE0YzAtMS4yNSwzLjM4LTIuMjYsNy41NC0yLjI2QzExLjY5LDI5Ljg4LDE1LjA3LDMwLjksMTUuMDcsMzIuMTR6Ii8+JiN4YTsJCQkJPC9nPiYjeGE7CQkJCTxnIGlkPSJzaGFwZTU2NjgtMTYiIHRyYW5zZm9ybT0idHJhbnNsYXRlKDEuOTQ1NTIsLTIwLjQ5OTEpIj4mI3hhOwkJCQkJPHRpdGxlIGlkPSJ0aXRsZTYzNTI0Ij5TaGVldC41NjY4PC90aXRsZT4mI3hhOwkJCQkJPHBhdGggaWQ9InBhdGg2MzUyNiIgaW5rc2NhcGU6Y29ubmVjdG9yLWN1cnZhdHVyZT0iMCIgc3R5bGU9ImZpbGw6I0I4RDQzMjsiIGQ9Ik0xMy41LDM0LjQxYzAuOTgtMC4zOCwxLjU3LTAuODYsMS41Ny0xLjM4ICAgICAgIGMwLTEuMjYtMy4zOC0yLjI3LTcuNTMtMi4yN0MzLjM3LDMwLjc2LDAsMzEuNzcsMCwzMy4wM2MwLDAuNTIsMC41OSwwLjk5LDEuNTgsMS4zOGMxLjM4LTAuNTMsMy41NC0wLjg4LDUuOTYtMC44OCAgICAgICBTMTIuMTEsMzMuODgsMTMuNSwzNC40MXoiLz4mI3hhOwkJCQk8L2c+JiN4YTsJCQk8L2c+JiN4YTsJCTwvZz4mI3hhOwk8L2c+JiN4YTs8L2c+JiN4YTs8L3N2Zz4=;" vertex="1" parent="1">
          <mxGeometry x="539.16" y="768" width="90.84" height="64" as="geometry" />
        </mxCell>
        <mxCell id="Oi9bZ2Bt2lVT0VfedK1E-26" value="" style="verticalLabelPosition=bottom;html=1;verticalAlign=top;align=center;strokeColor=default;fillColor=#FF8000;shape=mxgraph.azure.backup_service;" vertex="1" parent="1">
          <mxGeometry x="551.75" y="680" width="64.5" height="53" as="geometry" />
        </mxCell>
        <mxCell id="Oi9bZ2Bt2lVT0VfedK1E-27" value="4" style="ellipse;whiteSpace=wrap;html=1;aspect=fixed;fillColor=#4D9900;strokeColor=none;labelBackgroundColor=none;" vertex="1" parent="1">
          <mxGeometry x="827" y="620" width="23" height="23" as="geometry" />
        </mxCell>
        <mxCell id="Oi9bZ2Bt2lVT0VfedK1E-29" value="" style="shape=flexArrow;endArrow=classic;html=1;rounded=0;fillColor=#00FF00;" edge="1" parent="1">
          <mxGeometry width="50" height="50" relative="1" as="geometry">
            <mxPoint x="371" y="705.5" as="sourcePoint" />
            <mxPoint x="457" y="705.5" as="targetPoint" />
          </mxGeometry>
        </mxCell>
        <mxCell id="Oi9bZ2Bt2lVT0VfedK1E-30" value="" style="shape=flexArrow;endArrow=none;html=1;rounded=0;fillColor=#00FF00;endFill=0;startArrow=block;" edge="1" parent="1">
          <mxGeometry width="50" height="50" relative="1" as="geometry">
            <mxPoint x="371" y="787" as="sourcePoint" />
            <mxPoint x="457" y="787" as="targetPoint" />
          </mxGeometry>
        </mxCell>
        <mxCell id="Oi9bZ2Bt2lVT0VfedK1E-31" value="HTTP/HTTPS" style="text;html=1;align=left;verticalAlign=top;spacingTop=-4;fontSize=14;labelBackgroundColor=none;whiteSpace=wrap;" vertex="1" parent="1">
          <mxGeometry x="370" y="739.5" width="36" height="20" as="geometry" />
        </mxCell>
        <mxCell id="Oi9bZ2Bt2lVT0VfedK1E-33" value="&lt;font color=&quot;#cc0000&quot; style=&quot;font-size: 22px;&quot;&gt;Azure&lt;/font&gt;" style="text;html=1;align=left;verticalAlign=top;spacingTop=-4;fontSize=22;labelBackgroundColor=none;whiteSpace=wrap;fontStyle=1" vertex="1" parent="1">
          <mxGeometry x="500" y="635.5" width="130" height="20" as="geometry" />
        </mxCell>
        <mxCell id="Oi9bZ2Bt2lVT0VfedK1E-37" value="" style="endArrow=classic;html=1;rounded=0;" edge="1" parent="1">
          <mxGeometry width="50" height="50" relative="1" as="geometry">
            <mxPoint x="860" y="670" as="sourcePoint" />
            <mxPoint x="960" y="600" as="targetPoint" />
          </mxGeometry>
        </mxCell>
        <mxCell id="Oi9bZ2Bt2lVT0VfedK1E-39" value="" style="rounded=0;whiteSpace=wrap;html=1;fillColor=#66B2FF;strokeColor=none;fontColor=#333333;" vertex="1" parent="1">
          <mxGeometry x="980" y="550.5" width="210" height="79.5" as="geometry" />
        </mxCell>
        <mxCell id="Oi9bZ2Bt2lVT0VfedK1E-40" value="4" style="ellipse;whiteSpace=wrap;html=1;aspect=fixed;fillColor=#4D9900;strokeColor=none;labelBackgroundColor=none;" vertex="1" parent="1">
          <mxGeometry x="980" y="547" width="23" height="23" as="geometry" />
        </mxCell>
        <mxCell id="Oi9bZ2Bt2lVT0VfedK1E-41" value="" style="shape=image;verticalLabelPosition=bottom;labelBackgroundColor=#ffffff;verticalAlign=top;aspect=fixed;imageAspect=0;image=data:image/svg+xml,PHN2ZyB4bWxuczpjYz0iaHR0cDovL2NyZWF0aXZlY29tbW9ucy5vcmcvbnMjIiB4bWxuczpkYz0iaHR0cDovL3B1cmwub3JnL2RjL2VsZW1lbnRzLzEuMS8iIHhtbG5zOmlua3NjYXBlPSJodHRwOi8vd3d3Lmlua3NjYXBlLm9yZy9uYW1lc3BhY2VzL2lua3NjYXBlIiB4bWxuczpyZGY9Imh0dHA6Ly93d3cudzMub3JnLzE5OTkvMDIvMjItcmRmLXN5bnRheC1ucyMiIHhtbG5zOnNvZGlwb2RpPSJodHRwOi8vc29kaXBvZGkuc291cmNlZm9yZ2UubmV0L0RURC9zb2RpcG9kaS0wLmR0ZCIgeG1sbnM6c3ZnPSJodHRwOi8vd3d3LnczLm9yZy8yMDAwL3N2ZyIgeG1sbnM9Imh0dHA6Ly93d3cudzMub3JnLzIwMDAvc3ZnIiB4bWxuczp4bGluaz0iaHR0cDovL3d3dy53My5vcmcvMTk5OS94bGluayIgdmVyc2lvbj0iMS4xIiBpZD0ic3ZnMTA0Nzg1IiBpbmtzY2FwZTp2ZXJzaW9uPSIwLjkyLjMgKDI0MDU1NDYsIDIwMTgtMDMtMTEpIiBzb2RpcG9kaTpkb2NuYW1lPSJzcWxfMS5zdmciIHg9IjBweCIgeT0iMHB4IiB2aWV3Qm94PSIwIDAgNDEuNDkgNTUuMzIiIHN0eWxlPSJlbmFibGUtYmFja2dyb3VuZDpuZXcgMCAwIDQxLjQ5IDU1LjMyOyIgeG1sOnNwYWNlPSJwcmVzZXJ2ZSI+JiN4YTs8c29kaXBvZGk6bmFtZWR2aWV3IGJvcmRlcmNvbG9yPSIjNjY2NjY2IiBib3JkZXJvcGFjaXR5PSIxIiBmaXQtbWFyZ2luLWJvdHRvbT0iMCIgZml0LW1hcmdpbi1sZWZ0PSIwIiBmaXQtbWFyZ2luLXJpZ2h0PSIwIiBmaXQtbWFyZ2luLXRvcD0iMCIgZ3JpZHRvbGVyYW5jZT0iMTAiIGd1aWRldG9sZXJhbmNlPSIxMCIgaWQ9Im5hbWVkdmlldzEwNDc4NyIgaW5rc2NhcGU6Y3VycmVudC1sYXllcj0ic3ZnMTA0Nzg1IiBpbmtzY2FwZTpjeD0iMjcuNjU4MDc3IiBpbmtzY2FwZTpjeT0iLTUuMjgzNDUyIiBpbmtzY2FwZTpwYWdlb3BhY2l0eT0iMCIgaW5rc2NhcGU6cGFnZXNoYWRvdz0iMiIgaW5rc2NhcGU6d2luZG93LWhlaWdodD0iMTAxNyIgaW5rc2NhcGU6d2luZG93LW1heGltaXplZD0iMSIgaW5rc2NhcGU6d2luZG93LXdpZHRoPSIxOTIwIiBpbmtzY2FwZTp3aW5kb3cteD0iLTgiIGlua3NjYXBlOndpbmRvdy15PSItOCIgaW5rc2NhcGU6em9vbT0iNS4zNTM0MDYyIiBvYmplY3R0b2xlcmFuY2U9IjEwIiBwYWdlY29sb3I9IiNmZmZmZmYiIHNob3dncmlkPSJmYWxzZSI+JiN4YTsJPC9zb2RpcG9kaTpuYW1lZHZpZXc+JiN4YTs8ZyBpZD0iZzEwNDc4MyIgdHJhbnNmb3JtPSJ0cmFuc2xhdGUoLTQ4LjI1OTksLTEuNDQ5ODg4OSkiPiYjeGE7CTx0aXRsZSBpZD0idGl0bGUxMDQ3NjgiPlBhZ2UtMTwvdGl0bGU+JiN4YTsJPGcgaWQ9Imdyb3VwMzYxNi0xIiB0cmFuc2Zvcm09InRyYW5zbGF0ZSg0OC4yNTk5LC02NC42OTA2KSI+JiN4YTsJCTx0aXRsZSBpZD0idGl0bGUxMDQ3NzAiPlNRTCAjMTwvdGl0bGU+JiN4YTsJCTxnIGlkPSJzaGFwZTM2MTctMiIgdHJhbnNmb3JtPSJ0cmFuc2xhdGUoMTguODk5NywtMjIuODk2MSkiPiYjeGE7CQkJPHRpdGxlIGlkPSJ0aXRsZTEwNDc3MiI+U2hlZXQuMzYxNzwvdGl0bGU+JiN4YTsJCQk8cGF0aCBpZD0icGF0aDEwNDc3NCIgaW5rc2NhcGU6Y29ubmVjdG9yLWN1cnZhdHVyZT0iMCIgc3R5bGU9ImZpbGw6IzNGNTc2NTsiIGQ9Ik0zLjYxLDExNi41NmMtMC4xNS0wLjI3LTAuMzctMC40OS0wLjYyLTAuNjUgICAgIGMtMC4yMy0wLjE1LTAuNTMtMC4yNC0wLjg4LTAuMjRjLTAuMzYsMC0wLjcsMC4wOS0wLjk2LDAuMjRjLTAuMjcsMC4xNi0wLjQ4LDAuMzYtMC42NywwLjYzYy0wLjE2LDAuMjctMC4yOCwwLjU2LTAuMzYsMC45MyAgICAgQzAuMDMsMTE3LjgyLDAsMTE4LjE5LDAsMTE4LjU5YzAsMC41MSwwLjA1LDAuOTQsMC4xNywxLjMxYzAuMTEsMC4zNywwLjI2LDAuNjcsMC40NSwwLjljMC4xOCwwLjIzLDAuMzksMC40LDAuNjQsMC41ICAgICBjMC4yNSwwLjExLDAuNTIsMC4xNiwwLjgsMC4xNmMwLjI3LDAsMC41Mi0wLjA1LDAuNzUtMC4xNmMwLjI1LTAuMSwwLjQ3LTAuMjksMC42NS0wLjUyYzAuMi0wLjIxLDAuMzUtMC41MSwwLjQ2LTAuODggICAgIGMwLjEtMC4zNSwwLjE3LTAuNzYsMC4xNy0xLjI2YzAtMC40LTAuMDMtMC43OS0wLjEyLTEuMTNDMy44OSwxMTcuMTQsMy43OCwxMTYuODIsMy42MSwxMTYuNTZ6Ii8+JiN4YTsJCTwvZz4mI3hhOwkJPGcgaWQ9InNoYXBlMzYxOC00Ij4mI3hhOwkJCTx0aXRsZSBpZD0idGl0bGUxMDQ3NzciPlNoZWV0LjM2MTg8L3RpdGxlPiYjeGE7CQkJPHBhdGggaWQ9InBhdGgxMDQ3NzkiIGlua3NjYXBlOmNvbm5lY3Rvci1jdXJ2YXR1cmU9IjAiIHN0eWxlPSJmaWxsOiMzRjU3NjU7IiBkPSJNMjAuNzMsNjYuMTRDOS4yOCw2Ni4xNCwwLDcwLjA1LDAsNzQuMzR2MzguNzkgICAgIGMwLDQuMjksOS4yOCw4LjMzLDIwLjczLDguMzNjMTEuNDYsMCwyMC43Ni0zLjg2LDIwLjc2LTguMTVWNzQuNTZDNDEuNDksNzAuMjUsMzIuMTksNjYuMTQsMjAuNzMsNjYuMTR6IE0xNC41MSw5OC42NiAgICAgYy0wLjA1LDAuMjgtMC4xNSwwLjU1LTAuMywwLjgxYy0wLjE0LDAuMjctMC4zMywwLjUyLTAuNTcsMC43NWMtMC4yMywwLjIzLTAuNTMsMC40NS0wLjksMC42M2MtMC4zNSwwLjE5LTAuNzgsMC4zMi0xLjI2LDAuNDIgICAgIGMtMC41LDAuMTItMS4wNiwwLjE3LTEuNzEsMC4xN2MtMC4zNSwwLTAuNjgtMC4wMi0xLTAuMDdjLTAuMzItMC4wMy0wLjYtMC4wNy0wLjg4LTAuMTNjLTAuMjctMC4wNS0wLjUyLTAuMTItMC43My0wLjE5ICAgICBjLTAuMjQtMC4wNi0wLjQyLTAuMTUtMC41OS0wLjIxdi0zLjA1YzAuMTksMC4xNCwwLjQsMC4yOSwwLjY1LDAuNDJjMC4yNCwwLjEzLDAuNSwwLjI1LDAuNzcsMC4zNmMwLjI2LDAuMSwwLjU1LDAuMTksMC44NSwwLjI1ICAgICBjMC4yOCwwLjA5LDAuNTYsMC4xMiwwLjg0LDAuMTJjMC4yNCwwLDAuNDQtMC4wMywwLjU5LTAuMDhjMC4xNS0wLjA0LDAuMjYtMC4xLDAuMzUtMC4xOWMwLjA4LTAuMDYsMC4xNC0wLjE0LDAuMTgtMC4yMyAgICAgYzAuMDMtMC4xLDAuMDUtMC4xOCwwLjA1LTAuMjhjMC0wLjE3LTAuMDUtMC4zMi0wLjE0LTAuNDVjLTAuMDgtMC4xMi0wLjItMC4yMy0wLjM1LTAuMzNjLTAuMTYtMC4xLTAuMzQtMC4yLTAuNTQtMC4yOSAgICAgQzkuNiw5Nyw5LjM1LDk2LjkxLDkuMSw5Ni44MWMtMC40OC0wLjE4LTAuOS0wLjQtMS4yNS0wLjY1Yy0wLjMzLTAuMjUtMC42MS0wLjUtMC44My0wLjc4Yy0wLjIyLTAuMjgtMC4zNy0wLjYtMC40Ny0wLjkxICAgICBjLTAuMS0wLjMyLTAuMTUtMC42NS0wLjE1LTFjMC0wLjU1LDAuMTItMS4wMywwLjM0LTEuNDhjMC4yMS0wLjQzLDAuNTMtMC44LDAuOTEtMS4xMmMwLjQtMC4yOSwwLjg4LTAuNTQsMS40My0wLjY5ICAgICBjMC41NS0wLjE3LDEuMTctMC4yNSwxLjg1LTAuMjVjMC4zOCwwLDAuNzEsMC4wMSwxLjAzLDAuMDNjMC4zMSwwLjAzLDAuNiwwLjA2LDAuODUsMC4xMmMwLjI1LDAuMDMsMC40NiwwLjA4LDAuNjYsMC4xMyAgICAgYzAuMiwwLjA1LDAuMzgsMC4xLDAuNTMsMC4xNXYyLjgzYy0wLjE2LTAuMDktMC4zMy0wLjE5LTAuNTUtMC4yN2MtMC4yLTAuMS0wLjQxLTAuMTgtMC42NC0wLjI1Yy0wLjI0LTAuMDgtMC40OS0wLjEzLTAuNzUtMC4xOCAgICAgYy0wLjI3LTAuMDUtMC41NC0wLjA3LTAuODItMC4wN2MtMC4zNiwwLTAuNjYsMC4wNy0wLjksMC4yYy0wLjIzLDAuMTUtMC4zNSwwLjMzLTAuMzUsMC41OGMwLDAuMTIsMC4wNCwwLjI0LDAuMDksMC4zNCAgICAgczAuMTMsMC4xOCwwLjIzLDAuMjZjMC4xMiwwLjA5LDAuMjcsMC4xOSwwLjQ1LDAuMjdjMC4xOCwwLjEsMC40LDAuMiwwLjY2LDAuM2MwLjQ3LDAuMTgsMC44OSwwLjM4LDEuMjksMC42ICAgICBjMC4zOCwwLjIxLDAuNzEsMC40NiwwLjk5LDAuNzRjMC4yOSwwLjI3LDAuNSwwLjU5LDAuNjUsMC45NGMwLjE3LDAuMzUsMC4yNSwwLjc2LDAuMjUsMS4yMyAgICAgQzE0LjYxLDk4LjEzLDE0LjU3LDk4LjM5LDE0LjUxLDk4LjY2eiBNMjIuOTQsMTA0LjA2bC0yLjQ1LTIuNjJjLTAuNzEtMC4wNS0xLjM4LTAuMjItMS45OS0wLjQ5Yy0wLjY0LTAuMjgtMS4xOC0wLjY1LTEuNjUtMS4xMyAgICAgYy0wLjQ3LTAuNDgtMC44My0xLjA1LTEuMTEtMS43M2MtMC4yNy0wLjY2LTAuNC0xLjQzLTAuNC0yLjI2YzAtMC44OCwwLjEzLTEuNjgsMC40MS0yLjRjMC4yOC0wLjczLDAuNjctMS4zNCwxLjE4LTEuODYgICAgIGMwLjUtMC41MywxLjEtMC45MywxLjgtMS4yMWMwLjctMC4yOSwxLjQ4LTAuNDQsMi4zMS0wLjQ0YzAuOCwwLDEuNTMsMC4xNCwyLjIxLDAuNGMwLjY3LDAuMjcsMS4yNSwwLjY1LDEuNzMsMS4xNSAgICAgYzAuNDksMC40OSwwLjg3LDEuMDgsMS4xNSwxLjhjMC4yNywwLjcsMC40LDEuNSwwLjQsMi4zOGMwLDAuNjMtMC4wNywxLjIzLTAuMjMsMS43OGMtMC4xNSwwLjU1LTAuMzcsMS4wNS0wLjY1LDEuNDggICAgIGMtMC4yNywwLjQ1LTAuNiwwLjgzLTAuOTcsMS4xNmMtMC4zOCwwLjM0LTAuNzgsMC42LTEuMjMsMC44bDMuNzUsMy4yaC00LjI2VjEwNC4wNnogTTM1LjMsMTAxLjI0aC03LjE5VjkwLjExaDMuMzZ2OC41aDMuODMgICAgIFYxMDEuMjR6IE0yMC43MSw3OC4xNmMtOC4xNSwwLTE0Ljc3LTIuMDEtMTQuNzctNC41MmMwLTIuNTEsNi42Mi00LjUyLDE0Ljc3LTQuNTJjOC4xNywwLDE0Ljc5LDIuMDEsMTQuNzksNC41MiAgICAgQzM1LjUsNzYuMTUsMjguODgsNzguMTYsMjAuNzEsNzguMTZ6Ii8+JiN4YTsJCTwvZz4mI3hhOwk8L2c+JiN4YTs8L2c+JiN4YTs8L3N2Zz4=;" vertex="1" parent="1">
          <mxGeometry x="1020" y="579.5" width="25.35" height="34" as="geometry" />
        </mxCell>
        <mxCell id="Oi9bZ2Bt2lVT0VfedK1E-43" value="" style="shape=image;verticalLabelPosition=bottom;labelBackgroundColor=#ffffff;verticalAlign=top;aspect=fixed;imageAspect=0;image=data:image/svg+xml,PHN2ZyB4bWxuczpjYz0iaHR0cDovL2NyZWF0aXZlY29tbW9ucy5vcmcvbnMjIiB4bWxuczpkYz0iaHR0cDovL3B1cmwub3JnL2RjL2VsZW1lbnRzLzEuMS8iIHhtbG5zOmlua3NjYXBlPSJodHRwOi8vd3d3Lmlua3NjYXBlLm9yZy9uYW1lc3BhY2VzL2lua3NjYXBlIiB4bWxuczpyZGY9Imh0dHA6Ly93d3cudzMub3JnLzE5OTkvMDIvMjItcmRmLXN5bnRheC1ucyMiIHhtbG5zOnNvZGlwb2RpPSJodHRwOi8vc29kaXBvZGkuc291cmNlZm9yZ2UubmV0L0RURC9zb2RpcG9kaS0wLmR0ZCIgeG1sbnM6c3ZnPSJodHRwOi8vd3d3LnczLm9yZy8yMDAwL3N2ZyIgeG1sbnM9Imh0dHA6Ly93d3cudzMub3JnLzIwMDAvc3ZnIiB4bWxuczp4bGluaz0iaHR0cDovL3d3dy53My5vcmcvMTk5OS94bGluayIgdmVyc2lvbj0iMS4xIiBpZD0ic3ZnMTA0Nzg1IiBpbmtzY2FwZTp2ZXJzaW9uPSIwLjkyLjMgKDI0MDU1NDYsIDIwMTgtMDMtMTEpIiBzb2RpcG9kaTpkb2NuYW1lPSJzcWxfMS5zdmciIHg9IjBweCIgeT0iMHB4IiB2aWV3Qm94PSIwIDAgNDEuNDkgNTUuMzIiIHN0eWxlPSJlbmFibGUtYmFja2dyb3VuZDpuZXcgMCAwIDQxLjQ5IDU1LjMyOyIgeG1sOnNwYWNlPSJwcmVzZXJ2ZSI+JiN4YTs8c29kaXBvZGk6bmFtZWR2aWV3IGJvcmRlcmNvbG9yPSIjNjY2NjY2IiBib3JkZXJvcGFjaXR5PSIxIiBmaXQtbWFyZ2luLWJvdHRvbT0iMCIgZml0LW1hcmdpbi1sZWZ0PSIwIiBmaXQtbWFyZ2luLXJpZ2h0PSIwIiBmaXQtbWFyZ2luLXRvcD0iMCIgZ3JpZHRvbGVyYW5jZT0iMTAiIGd1aWRldG9sZXJhbmNlPSIxMCIgaWQ9Im5hbWVkdmlldzEwNDc4NyIgaW5rc2NhcGU6Y3VycmVudC1sYXllcj0ic3ZnMTA0Nzg1IiBpbmtzY2FwZTpjeD0iMjcuNjU4MDc3IiBpbmtzY2FwZTpjeT0iLTUuMjgzNDUyIiBpbmtzY2FwZTpwYWdlb3BhY2l0eT0iMCIgaW5rc2NhcGU6cGFnZXNoYWRvdz0iMiIgaW5rc2NhcGU6d2luZG93LWhlaWdodD0iMTAxNyIgaW5rc2NhcGU6d2luZG93LW1heGltaXplZD0iMSIgaW5rc2NhcGU6d2luZG93LXdpZHRoPSIxOTIwIiBpbmtzY2FwZTp3aW5kb3cteD0iLTgiIGlua3NjYXBlOndpbmRvdy15PSItOCIgaW5rc2NhcGU6em9vbT0iNS4zNTM0MDYyIiBvYmplY3R0b2xlcmFuY2U9IjEwIiBwYWdlY29sb3I9IiNmZmZmZmYiIHNob3dncmlkPSJmYWxzZSI+JiN4YTsJPC9zb2RpcG9kaTpuYW1lZHZpZXc+JiN4YTs8ZyBpZD0iZzEwNDc4MyIgdHJhbnNmb3JtPSJ0cmFuc2xhdGUoLTQ4LjI1OTksLTEuNDQ5ODg4OSkiPiYjeGE7CTx0aXRsZSBpZD0idGl0bGUxMDQ3NjgiPlBhZ2UtMTwvdGl0bGU+JiN4YTsJPGcgaWQ9Imdyb3VwMzYxNi0xIiB0cmFuc2Zvcm09InRyYW5zbGF0ZSg0OC4yNTk5LC02NC42OTA2KSI+JiN4YTsJCTx0aXRsZSBpZD0idGl0bGUxMDQ3NzAiPlNRTCAjMTwvdGl0bGU+JiN4YTsJCTxnIGlkPSJzaGFwZTM2MTctMiIgdHJhbnNmb3JtPSJ0cmFuc2xhdGUoMTguODk5NywtMjIuODk2MSkiPiYjeGE7CQkJPHRpdGxlIGlkPSJ0aXRsZTEwNDc3MiI+U2hlZXQuMzYxNzwvdGl0bGU+JiN4YTsJCQk8cGF0aCBpZD0icGF0aDEwNDc3NCIgaW5rc2NhcGU6Y29ubmVjdG9yLWN1cnZhdHVyZT0iMCIgc3R5bGU9ImZpbGw6IzNGNTc2NTsiIGQ9Ik0zLjYxLDExNi41NmMtMC4xNS0wLjI3LTAuMzctMC40OS0wLjYyLTAuNjUgICAgIGMtMC4yMy0wLjE1LTAuNTMtMC4yNC0wLjg4LTAuMjRjLTAuMzYsMC0wLjcsMC4wOS0wLjk2LDAuMjRjLTAuMjcsMC4xNi0wLjQ4LDAuMzYtMC42NywwLjYzYy0wLjE2LDAuMjctMC4yOCwwLjU2LTAuMzYsMC45MyAgICAgQzAuMDMsMTE3LjgyLDAsMTE4LjE5LDAsMTE4LjU5YzAsMC41MSwwLjA1LDAuOTQsMC4xNywxLjMxYzAuMTEsMC4zNywwLjI2LDAuNjcsMC40NSwwLjljMC4xOCwwLjIzLDAuMzksMC40LDAuNjQsMC41ICAgICBjMC4yNSwwLjExLDAuNTIsMC4xNiwwLjgsMC4xNmMwLjI3LDAsMC41Mi0wLjA1LDAuNzUtMC4xNmMwLjI1LTAuMSwwLjQ3LTAuMjksMC42NS0wLjUyYzAuMi0wLjIxLDAuMzUtMC41MSwwLjQ2LTAuODggICAgIGMwLjEtMC4zNSwwLjE3LTAuNzYsMC4xNy0xLjI2YzAtMC40LTAuMDMtMC43OS0wLjEyLTEuMTNDMy44OSwxMTcuMTQsMy43OCwxMTYuODIsMy42MSwxMTYuNTZ6Ii8+JiN4YTsJCTwvZz4mI3hhOwkJPGcgaWQ9InNoYXBlMzYxOC00Ij4mI3hhOwkJCTx0aXRsZSBpZD0idGl0bGUxMDQ3NzciPlNoZWV0LjM2MTg8L3RpdGxlPiYjeGE7CQkJPHBhdGggaWQ9InBhdGgxMDQ3NzkiIGlua3NjYXBlOmNvbm5lY3Rvci1jdXJ2YXR1cmU9IjAiIHN0eWxlPSJmaWxsOiMzRjU3NjU7IiBkPSJNMjAuNzMsNjYuMTRDOS4yOCw2Ni4xNCwwLDcwLjA1LDAsNzQuMzR2MzguNzkgICAgIGMwLDQuMjksOS4yOCw4LjMzLDIwLjczLDguMzNjMTEuNDYsMCwyMC43Ni0zLjg2LDIwLjc2LTguMTVWNzQuNTZDNDEuNDksNzAuMjUsMzIuMTksNjYuMTQsMjAuNzMsNjYuMTR6IE0xNC41MSw5OC42NiAgICAgYy0wLjA1LDAuMjgtMC4xNSwwLjU1LTAuMywwLjgxYy0wLjE0LDAuMjctMC4zMywwLjUyLTAuNTcsMC43NWMtMC4yMywwLjIzLTAuNTMsMC40NS0wLjksMC42M2MtMC4zNSwwLjE5LTAuNzgsMC4zMi0xLjI2LDAuNDIgICAgIGMtMC41LDAuMTItMS4wNiwwLjE3LTEuNzEsMC4xN2MtMC4zNSwwLTAuNjgtMC4wMi0xLTAuMDdjLTAuMzItMC4wMy0wLjYtMC4wNy0wLjg4LTAuMTNjLTAuMjctMC4wNS0wLjUyLTAuMTItMC43My0wLjE5ICAgICBjLTAuMjQtMC4wNi0wLjQyLTAuMTUtMC41OS0wLjIxdi0zLjA1YzAuMTksMC4xNCwwLjQsMC4yOSwwLjY1LDAuNDJjMC4yNCwwLjEzLDAuNSwwLjI1LDAuNzcsMC4zNmMwLjI2LDAuMSwwLjU1LDAuMTksMC44NSwwLjI1ICAgICBjMC4yOCwwLjA5LDAuNTYsMC4xMiwwLjg0LDAuMTJjMC4yNCwwLDAuNDQtMC4wMywwLjU5LTAuMDhjMC4xNS0wLjA0LDAuMjYtMC4xLDAuMzUtMC4xOWMwLjA4LTAuMDYsMC4xNC0wLjE0LDAuMTgtMC4yMyAgICAgYzAuMDMtMC4xLDAuMDUtMC4xOCwwLjA1LTAuMjhjMC0wLjE3LTAuMDUtMC4zMi0wLjE0LTAuNDVjLTAuMDgtMC4xMi0wLjItMC4yMy0wLjM1LTAuMzNjLTAuMTYtMC4xLTAuMzQtMC4yLTAuNTQtMC4yOSAgICAgQzkuNiw5Nyw5LjM1LDk2LjkxLDkuMSw5Ni44MWMtMC40OC0wLjE4LTAuOS0wLjQtMS4yNS0wLjY1Yy0wLjMzLTAuMjUtMC42MS0wLjUtMC44My0wLjc4Yy0wLjIyLTAuMjgtMC4zNy0wLjYtMC40Ny0wLjkxICAgICBjLTAuMS0wLjMyLTAuMTUtMC42NS0wLjE1LTFjMC0wLjU1LDAuMTItMS4wMywwLjM0LTEuNDhjMC4yMS0wLjQzLDAuNTMtMC44LDAuOTEtMS4xMmMwLjQtMC4yOSwwLjg4LTAuNTQsMS40My0wLjY5ICAgICBjMC41NS0wLjE3LDEuMTctMC4yNSwxLjg1LTAuMjVjMC4zOCwwLDAuNzEsMC4wMSwxLjAzLDAuMDNjMC4zMSwwLjAzLDAuNiwwLjA2LDAuODUsMC4xMmMwLjI1LDAuMDMsMC40NiwwLjA4LDAuNjYsMC4xMyAgICAgYzAuMiwwLjA1LDAuMzgsMC4xLDAuNTMsMC4xNXYyLjgzYy0wLjE2LTAuMDktMC4zMy0wLjE5LTAuNTUtMC4yN2MtMC4yLTAuMS0wLjQxLTAuMTgtMC42NC0wLjI1Yy0wLjI0LTAuMDgtMC40OS0wLjEzLTAuNzUtMC4xOCAgICAgYy0wLjI3LTAuMDUtMC41NC0wLjA3LTAuODItMC4wN2MtMC4zNiwwLTAuNjYsMC4wNy0wLjksMC4yYy0wLjIzLDAuMTUtMC4zNSwwLjMzLTAuMzUsMC41OGMwLDAuMTIsMC4wNCwwLjI0LDAuMDksMC4zNCAgICAgczAuMTMsMC4xOCwwLjIzLDAuMjZjMC4xMiwwLjA5LDAuMjcsMC4xOSwwLjQ1LDAuMjdjMC4xOCwwLjEsMC40LDAuMiwwLjY2LDAuM2MwLjQ3LDAuMTgsMC44OSwwLjM4LDEuMjksMC42ICAgICBjMC4zOCwwLjIxLDAuNzEsMC40NiwwLjk5LDAuNzRjMC4yOSwwLjI3LDAuNSwwLjU5LDAuNjUsMC45NGMwLjE3LDAuMzUsMC4yNSwwLjc2LDAuMjUsMS4yMyAgICAgQzE0LjYxLDk4LjEzLDE0LjU3LDk4LjM5LDE0LjUxLDk4LjY2eiBNMjIuOTQsMTA0LjA2bC0yLjQ1LTIuNjJjLTAuNzEtMC4wNS0xLjM4LTAuMjItMS45OS0wLjQ5Yy0wLjY0LTAuMjgtMS4xOC0wLjY1LTEuNjUtMS4xMyAgICAgYy0wLjQ3LTAuNDgtMC44My0xLjA1LTEuMTEtMS43M2MtMC4yNy0wLjY2LTAuNC0xLjQzLTAuNC0yLjI2YzAtMC44OCwwLjEzLTEuNjgsMC40MS0yLjRjMC4yOC0wLjczLDAuNjctMS4zNCwxLjE4LTEuODYgICAgIGMwLjUtMC41MywxLjEtMC45MywxLjgtMS4yMWMwLjctMC4yOSwxLjQ4LTAuNDQsMi4zMS0wLjQ0YzAuOCwwLDEuNTMsMC4xNCwyLjIxLDAuNGMwLjY3LDAuMjcsMS4yNSwwLjY1LDEuNzMsMS4xNSAgICAgYzAuNDksMC40OSwwLjg3LDEuMDgsMS4xNSwxLjhjMC4yNywwLjcsMC40LDEuNSwwLjQsMi4zOGMwLDAuNjMtMC4wNywxLjIzLTAuMjMsMS43OGMtMC4xNSwwLjU1LTAuMzcsMS4wNS0wLjY1LDEuNDggICAgIGMtMC4yNywwLjQ1LTAuNiwwLjgzLTAuOTcsMS4xNmMtMC4zOCwwLjM0LTAuNzgsMC42LTEuMjMsMC44bDMuNzUsMy4yaC00LjI2VjEwNC4wNnogTTM1LjMsMTAxLjI0aC03LjE5VjkwLjExaDMuMzZ2OC41aDMuODMgICAgIFYxMDEuMjR6IE0yMC43MSw3OC4xNmMtOC4xNSwwLTE0Ljc3LTIuMDEtMTQuNzctNC41MmMwLTIuNTEsNi42Mi00LjUyLDE0Ljc3LTQuNTJjOC4xNywwLDE0Ljc5LDIuMDEsMTQuNzksNC41MiAgICAgQzM1LjUsNzYuMTUsMjguODgsNzguMTYsMjAuNzEsNzguMTZ6Ii8+JiN4YTsJCTwvZz4mI3hhOwk8L2c+JiN4YTs8L2c+JiN4YTs8L3N2Zz4=;" vertex="1" parent="1">
          <mxGeometry x="1072.51" y="579.5" width="24.97" height="33.5" as="geometry" />
        </mxCell>
        <mxCell id="Oi9bZ2Bt2lVT0VfedK1E-45" value="" style="shape=image;verticalLabelPosition=bottom;labelBackgroundColor=#ffffff;verticalAlign=top;aspect=fixed;imageAspect=0;image=data:image/svg+xml,PHN2ZyB4bWxuczpjYz0iaHR0cDovL2NyZWF0aXZlY29tbW9ucy5vcmcvbnMjIiB4bWxuczpkYz0iaHR0cDovL3B1cmwub3JnL2RjL2VsZW1lbnRzLzEuMS8iIHhtbG5zOmlua3NjYXBlPSJodHRwOi8vd3d3Lmlua3NjYXBlLm9yZy9uYW1lc3BhY2VzL2lua3NjYXBlIiB4bWxuczpyZGY9Imh0dHA6Ly93d3cudzMub3JnLzE5OTkvMDIvMjItcmRmLXN5bnRheC1ucyMiIHhtbG5zOnNvZGlwb2RpPSJodHRwOi8vc29kaXBvZGkuc291cmNlZm9yZ2UubmV0L0RURC9zb2RpcG9kaS0wLmR0ZCIgeG1sbnM6c3ZnPSJodHRwOi8vd3d3LnczLm9yZy8yMDAwL3N2ZyIgeG1sbnM9Imh0dHA6Ly93d3cudzMub3JnLzIwMDAvc3ZnIiB4bWxuczp4bGluaz0iaHR0cDovL3d3dy53My5vcmcvMTk5OS94bGluayIgdmVyc2lvbj0iMS4xIiBpZD0ic3ZnMTA0Nzg1IiBpbmtzY2FwZTp2ZXJzaW9uPSIwLjkyLjMgKDI0MDU1NDYsIDIwMTgtMDMtMTEpIiBzb2RpcG9kaTpkb2NuYW1lPSJzcWxfMS5zdmciIHg9IjBweCIgeT0iMHB4IiB2aWV3Qm94PSIwIDAgNDEuNDkgNTUuMzIiIHN0eWxlPSJlbmFibGUtYmFja2dyb3VuZDpuZXcgMCAwIDQxLjQ5IDU1LjMyOyIgeG1sOnNwYWNlPSJwcmVzZXJ2ZSI+JiN4YTs8c29kaXBvZGk6bmFtZWR2aWV3IGJvcmRlcmNvbG9yPSIjNjY2NjY2IiBib3JkZXJvcGFjaXR5PSIxIiBmaXQtbWFyZ2luLWJvdHRvbT0iMCIgZml0LW1hcmdpbi1sZWZ0PSIwIiBmaXQtbWFyZ2luLXJpZ2h0PSIwIiBmaXQtbWFyZ2luLXRvcD0iMCIgZ3JpZHRvbGVyYW5jZT0iMTAiIGd1aWRldG9sZXJhbmNlPSIxMCIgaWQ9Im5hbWVkdmlldzEwNDc4NyIgaW5rc2NhcGU6Y3VycmVudC1sYXllcj0ic3ZnMTA0Nzg1IiBpbmtzY2FwZTpjeD0iMjcuNjU4MDc3IiBpbmtzY2FwZTpjeT0iLTUuMjgzNDUyIiBpbmtzY2FwZTpwYWdlb3BhY2l0eT0iMCIgaW5rc2NhcGU6cGFnZXNoYWRvdz0iMiIgaW5rc2NhcGU6d2luZG93LWhlaWdodD0iMTAxNyIgaW5rc2NhcGU6d2luZG93LW1heGltaXplZD0iMSIgaW5rc2NhcGU6d2luZG93LXdpZHRoPSIxOTIwIiBpbmtzY2FwZTp3aW5kb3cteD0iLTgiIGlua3NjYXBlOndpbmRvdy15PSItOCIgaW5rc2NhcGU6em9vbT0iNS4zNTM0MDYyIiBvYmplY3R0b2xlcmFuY2U9IjEwIiBwYWdlY29sb3I9IiNmZmZmZmYiIHNob3dncmlkPSJmYWxzZSI+JiN4YTsJPC9zb2RpcG9kaTpuYW1lZHZpZXc+JiN4YTs8ZyBpZD0iZzEwNDc4MyIgdHJhbnNmb3JtPSJ0cmFuc2xhdGUoLTQ4LjI1OTksLTEuNDQ5ODg4OSkiPiYjeGE7CTx0aXRsZSBpZD0idGl0bGUxMDQ3NjgiPlBhZ2UtMTwvdGl0bGU+JiN4YTsJPGcgaWQ9Imdyb3VwMzYxNi0xIiB0cmFuc2Zvcm09InRyYW5zbGF0ZSg0OC4yNTk5LC02NC42OTA2KSI+JiN4YTsJCTx0aXRsZSBpZD0idGl0bGUxMDQ3NzAiPlNRTCAjMTwvdGl0bGU+JiN4YTsJCTxnIGlkPSJzaGFwZTM2MTctMiIgdHJhbnNmb3JtPSJ0cmFuc2xhdGUoMTguODk5NywtMjIuODk2MSkiPiYjeGE7CQkJPHRpdGxlIGlkPSJ0aXRsZTEwNDc3MiI+U2hlZXQuMzYxNzwvdGl0bGU+JiN4YTsJCQk8cGF0aCBpZD0icGF0aDEwNDc3NCIgaW5rc2NhcGU6Y29ubmVjdG9yLWN1cnZhdHVyZT0iMCIgc3R5bGU9ImZpbGw6IzNGNTc2NTsiIGQ9Ik0zLjYxLDExNi41NmMtMC4xNS0wLjI3LTAuMzctMC40OS0wLjYyLTAuNjUgICAgIGMtMC4yMy0wLjE1LTAuNTMtMC4yNC0wLjg4LTAuMjRjLTAuMzYsMC0wLjcsMC4wOS0wLjk2LDAuMjRjLTAuMjcsMC4xNi0wLjQ4LDAuMzYtMC42NywwLjYzYy0wLjE2LDAuMjctMC4yOCwwLjU2LTAuMzYsMC45MyAgICAgQzAuMDMsMTE3LjgyLDAsMTE4LjE5LDAsMTE4LjU5YzAsMC41MSwwLjA1LDAuOTQsMC4xNywxLjMxYzAuMTEsMC4zNywwLjI2LDAuNjcsMC40NSwwLjljMC4xOCwwLjIzLDAuMzksMC40LDAuNjQsMC41ICAgICBjMC4yNSwwLjExLDAuNTIsMC4xNiwwLjgsMC4xNmMwLjI3LDAsMC41Mi0wLjA1LDAuNzUtMC4xNmMwLjI1LTAuMSwwLjQ3LTAuMjksMC42NS0wLjUyYzAuMi0wLjIxLDAuMzUtMC41MSwwLjQ2LTAuODggICAgIGMwLjEtMC4zNSwwLjE3LTAuNzYsMC4xNy0xLjI2YzAtMC40LTAuMDMtMC43OS0wLjEyLTEuMTNDMy44OSwxMTcuMTQsMy43OCwxMTYuODIsMy42MSwxMTYuNTZ6Ii8+JiN4YTsJCTwvZz4mI3hhOwkJPGcgaWQ9InNoYXBlMzYxOC00Ij4mI3hhOwkJCTx0aXRsZSBpZD0idGl0bGUxMDQ3NzciPlNoZWV0LjM2MTg8L3RpdGxlPiYjeGE7CQkJPHBhdGggaWQ9InBhdGgxMDQ3NzkiIGlua3NjYXBlOmNvbm5lY3Rvci1jdXJ2YXR1cmU9IjAiIHN0eWxlPSJmaWxsOiMzRjU3NjU7IiBkPSJNMjAuNzMsNjYuMTRDOS4yOCw2Ni4xNCwwLDcwLjA1LDAsNzQuMzR2MzguNzkgICAgIGMwLDQuMjksOS4yOCw4LjMzLDIwLjczLDguMzNjMTEuNDYsMCwyMC43Ni0zLjg2LDIwLjc2LTguMTVWNzQuNTZDNDEuNDksNzAuMjUsMzIuMTksNjYuMTQsMjAuNzMsNjYuMTR6IE0xNC41MSw5OC42NiAgICAgYy0wLjA1LDAuMjgtMC4xNSwwLjU1LTAuMywwLjgxYy0wLjE0LDAuMjctMC4zMywwLjUyLTAuNTcsMC43NWMtMC4yMywwLjIzLTAuNTMsMC40NS0wLjksMC42M2MtMC4zNSwwLjE5LTAuNzgsMC4zMi0xLjI2LDAuNDIgICAgIGMtMC41LDAuMTItMS4wNiwwLjE3LTEuNzEsMC4xN2MtMC4zNSwwLTAuNjgtMC4wMi0xLTAuMDdjLTAuMzItMC4wMy0wLjYtMC4wNy0wLjg4LTAuMTNjLTAuMjctMC4wNS0wLjUyLTAuMTItMC43My0wLjE5ICAgICBjLTAuMjQtMC4wNi0wLjQyLTAuMTUtMC41OS0wLjIxdi0zLjA1YzAuMTksMC4xNCwwLjQsMC4yOSwwLjY1LDAuNDJjMC4yNCwwLjEzLDAuNSwwLjI1LDAuNzcsMC4zNmMwLjI2LDAuMSwwLjU1LDAuMTksMC44NSwwLjI1ICAgICBjMC4yOCwwLjA5LDAuNTYsMC4xMiwwLjg0LDAuMTJjMC4yNCwwLDAuNDQtMC4wMywwLjU5LTAuMDhjMC4xNS0wLjA0LDAuMjYtMC4xLDAuMzUtMC4xOWMwLjA4LTAuMDYsMC4xNC0wLjE0LDAuMTgtMC4yMyAgICAgYzAuMDMtMC4xLDAuMDUtMC4xOCwwLjA1LTAuMjhjMC0wLjE3LTAuMDUtMC4zMi0wLjE0LTAuNDVjLTAuMDgtMC4xMi0wLjItMC4yMy0wLjM1LTAuMzNjLTAuMTYtMC4xLTAuMzQtMC4yLTAuNTQtMC4yOSAgICAgQzkuNiw5Nyw5LjM1LDk2LjkxLDkuMSw5Ni44MWMtMC40OC0wLjE4LTAuOS0wLjQtMS4yNS0wLjY1Yy0wLjMzLTAuMjUtMC42MS0wLjUtMC44My0wLjc4Yy0wLjIyLTAuMjgtMC4zNy0wLjYtMC40Ny0wLjkxICAgICBjLTAuMS0wLjMyLTAuMTUtMC42NS0wLjE1LTFjMC0wLjU1LDAuMTItMS4wMywwLjM0LTEuNDhjMC4yMS0wLjQzLDAuNTMtMC44LDAuOTEtMS4xMmMwLjQtMC4yOSwwLjg4LTAuNTQsMS40My0wLjY5ICAgICBjMC41NS0wLjE3LDEuMTctMC4yNSwxLjg1LTAuMjVjMC4zOCwwLDAuNzEsMC4wMSwxLjAzLDAuMDNjMC4zMSwwLjAzLDAuNiwwLjA2LDAuODUsMC4xMmMwLjI1LDAuMDMsMC40NiwwLjA4LDAuNjYsMC4xMyAgICAgYzAuMiwwLjA1LDAuMzgsMC4xLDAuNTMsMC4xNXYyLjgzYy0wLjE2LTAuMDktMC4zMy0wLjE5LTAuNTUtMC4yN2MtMC4yLTAuMS0wLjQxLTAuMTgtMC42NC0wLjI1Yy0wLjI0LTAuMDgtMC40OS0wLjEzLTAuNzUtMC4xOCAgICAgYy0wLjI3LTAuMDUtMC41NC0wLjA3LTAuODItMC4wN2MtMC4zNiwwLTAuNjYsMC4wNy0wLjksMC4yYy0wLjIzLDAuMTUtMC4zNSwwLjMzLTAuMzUsMC41OGMwLDAuMTIsMC4wNCwwLjI0LDAuMDksMC4zNCAgICAgczAuMTMsMC4xOCwwLjIzLDAuMjZjMC4xMiwwLjA5LDAuMjcsMC4xOSwwLjQ1LDAuMjdjMC4xOCwwLjEsMC40LDAuMiwwLjY2LDAuM2MwLjQ3LDAuMTgsMC44OSwwLjM4LDEuMjksMC42ICAgICBjMC4zOCwwLjIxLDAuNzEsMC40NiwwLjk5LDAuNzRjMC4yOSwwLjI3LDAuNSwwLjU5LDAuNjUsMC45NGMwLjE3LDAuMzUsMC4yNSwwLjc2LDAuMjUsMS4yMyAgICAgQzE0LjYxLDk4LjEzLDE0LjU3LDk4LjM5LDE0LjUxLDk4LjY2eiBNMjIuOTQsMTA0LjA2bC0yLjQ1LTIuNjJjLTAuNzEtMC4wNS0xLjM4LTAuMjItMS45OS0wLjQ5Yy0wLjY0LTAuMjgtMS4xOC0wLjY1LTEuNjUtMS4xMyAgICAgYy0wLjQ3LTAuNDgtMC44My0xLjA1LTEuMTEtMS43M2MtMC4yNy0wLjY2LTAuNC0xLjQzLTAuNC0yLjI2YzAtMC44OCwwLjEzLTEuNjgsMC40MS0yLjRjMC4yOC0wLjczLDAuNjctMS4zNCwxLjE4LTEuODYgICAgIGMwLjUtMC41MywxLjEtMC45MywxLjgtMS4yMWMwLjctMC4yOSwxLjQ4LTAuNDQsMi4zMS0wLjQ0YzAuOCwwLDEuNTMsMC4xNCwyLjIxLDAuNGMwLjY3LDAuMjcsMS4yNSwwLjY1LDEuNzMsMS4xNSAgICAgYzAuNDksMC40OSwwLjg3LDEuMDgsMS4xNSwxLjhjMC4yNywwLjcsMC40LDEuNSwwLjQsMi4zOGMwLDAuNjMtMC4wNywxLjIzLTAuMjMsMS43OGMtMC4xNSwwLjU1LTAuMzcsMS4wNS0wLjY1LDEuNDggICAgIGMtMC4yNywwLjQ1LTAuNiwwLjgzLTAuOTcsMS4xNmMtMC4zOCwwLjM0LTAuNzgsMC42LTEuMjMsMC44bDMuNzUsMy4yaC00LjI2VjEwNC4wNnogTTM1LjMsMTAxLjI0aC03LjE5VjkwLjExaDMuMzZ2OC41aDMuODMgICAgIFYxMDEuMjR6IE0yMC43MSw3OC4xNmMtOC4xNSwwLTE0Ljc3LTIuMDEtMTQuNzctNC41MmMwLTIuNTEsNi42Mi00LjUyLDE0Ljc3LTQuNTJjOC4xNywwLDE0Ljc5LDIuMDEsMTQuNzksNC41MiAgICAgQzM1LjUsNzYuMTUsMjguODgsNzguMTYsMjAuNzEsNzguMTZ6Ii8+JiN4YTsJCTwvZz4mI3hhOwk8L2c+JiN4YTs8L2c+JiN4YTs8L3N2Zz4=;" vertex="1" parent="1">
          <mxGeometry x="1130" y="579.5" width="24.97" height="33.5" as="geometry" />
        </mxCell>
        <mxCell id="Oi9bZ2Bt2lVT0VfedK1E-46" value="" style="shape=image;verticalLabelPosition=bottom;labelBackgroundColor=#ffffff;verticalAlign=top;aspect=fixed;imageAspect=0;image=data:image/svg+xml,PHN2ZyB4bWxuczpjYz0iaHR0cDovL2NyZWF0aXZlY29tbW9ucy5vcmcvbnMjIiB4bWxuczpkYz0iaHR0cDovL3B1cmwub3JnL2RjL2VsZW1lbnRzLzEuMS8iIHhtbG5zOmlua3NjYXBlPSJodHRwOi8vd3d3Lmlua3NjYXBlLm9yZy9uYW1lc3BhY2VzL2lua3NjYXBlIiB4bWxuczpyZGY9Imh0dHA6Ly93d3cudzMub3JnLzE5OTkvMDIvMjItcmRmLXN5bnRheC1ucyMiIHhtbG5zOnNvZGlwb2RpPSJodHRwOi8vc29kaXBvZGkuc291cmNlZm9yZ2UubmV0L0RURC9zb2RpcG9kaS0wLmR0ZCIgeG1sbnM6c3ZnPSJodHRwOi8vd3d3LnczLm9yZy8yMDAwL3N2ZyIgeG1sbnM9Imh0dHA6Ly93d3cudzMub3JnLzIwMDAvc3ZnIiB4bWxuczp4bGluaz0iaHR0cDovL3d3dy53My5vcmcvMTk5OS94bGluayIgdmVyc2lvbj0iMS4xIiBpZD0ic3ZnOTkwIiBpbmtzY2FwZTp2ZXJzaW9uPSIwLjkyLjMgKDI0MDU1NDYsIDIwMTgtMDMtMTEpIiBzb2RpcG9kaTpkb2NuYW1lPSJzbXRwX3NlcnZlcl8xLnN2ZyIgeD0iMHB4IiB5PSIwcHgiIHZpZXdCb3g9IjAgMCA4Ny4xOSA3Ni43NCIgc3R5bGU9ImVuYWJsZS1iYWNrZ3JvdW5kOm5ldyAwIDAgODcuMTkgNzYuNzQ7IiB4bWw6c3BhY2U9InByZXNlcnZlIj4mI3hhOzxzb2RpcG9kaTpuYW1lZHZpZXcgYm9yZGVyY29sb3I9IiM2NjY2NjYiIGJvcmRlcm9wYWNpdHk9IjEiIGZpdC1tYXJnaW4tYm90dG9tPSIwIiBmaXQtbWFyZ2luLWxlZnQ9IjAiIGZpdC1tYXJnaW4tcmlnaHQ9IjAiIGZpdC1tYXJnaW4tdG9wPSIwIiBncmlkdG9sZXJhbmNlPSIxMCIgZ3VpZGV0b2xlcmFuY2U9IjEwIiBpZD0ibmFtZWR2aWV3OTkyIiBpbmtzY2FwZTpjdXJyZW50LWxheWVyPSJzdmc5OTAiIGlua3NjYXBlOmN4PSI3Ny4zMDIzMjQiIGlua3NjYXBlOmN5PSI1MS4xNjEzNzQiIGlua3NjYXBlOnBhZ2VvcGFjaXR5PSIwIiBpbmtzY2FwZTpwYWdlc2hhZG93PSIyIiBpbmtzY2FwZTp3aW5kb3ctaGVpZ2h0PSIxMDE3IiBpbmtzY2FwZTp3aW5kb3ctbWF4aW1pemVkPSIxIiBpbmtzY2FwZTp3aW5kb3ctd2lkdGg9IjE5MjAiIGlua3NjYXBlOndpbmRvdy14PSItOCIgaW5rc2NhcGU6d2luZG93LXk9Ii04IiBpbmtzY2FwZTp6b29tPSI4LjQ3MzYwMjUiIG9iamVjdHRvbGVyYW5jZT0iMTAiIHBhZ2Vjb2xvcj0iI2ZmZmZmZiIgc2hvd2dyaWQ9ImZhbHNlIj4mI3hhOwk8L3NvZGlwb2RpOm5hbWVkdmlldz4mI3hhOzxnIGlkPSJnOTg4Ij4mI3hhOwk8dGl0bGUgaWQ9InRpdGxlOTczIj5QYWdlLTE8L3RpdGxlPiYjeGE7CTxnIGlkPSJncm91cDgxNDUtMSI+JiN4YTsJCTx0aXRsZSBpZD0idGl0bGU5NzUiPlNNVFAgU2VydmVyICMxPC90aXRsZT4mI3hhOwkJPGcgaWQ9InNoYXBlODE0Ni0yIiB0cmFuc2Zvcm09InRyYW5zbGF0ZSgzOS45Mzc1LC01LjYyNSkiPiYjeGE7CQkJPHRpdGxlIGlkPSJ0aXRsZTk3NyI+RW1haWwuMTM2PC90aXRsZT4mI3hhOwkJCTxwYXRoIGlkPSJwYXRoOTc5IiBpbmtzY2FwZTpjb25uZWN0b3ItY3VydmF0dXJlPSIwIiBzdHlsZT0iZmlsbDojM0Y1NzY1OyIgZD0iTTEuMTEsNDMuNzNjNDUuMDQsMCw0NS4wNCwwLDQ1LjA0LDAgICAgIEMyMy42Myw2Mi41OSwyMy42Myw2Mi41OSwyMy42Myw2Mi41OUwxLjExLDQzLjczeiBNMjQuMSw2NC4xNkwyNC4xLDY0LjE2YzAsMCwwLDAsMCwwLjE3aC0wLjE2bDAsMGgtMC4xNWwwLDBoLTAuMTZsMCwwbDAsMCAgICAgaC0wLjE2bDAsMGgtMC4xNmwwLDBjMCwwLDAsMC0wLjE1LDBjMC0wLjE3LDAtMC4xNywwLTAuMTdsMCwwYy0zLjQ3LTIuODItMy40Ny0yLjgyLTMuNDctMi44MkMxLjI2LDc2Ljc0LDEuMjYsNzYuNzQsMS4yNiw3Ni43NCAgICAgYzQ0Ljg5LDAsNDQuODksMCw0NC44OSwwYy0xOC41OS0xNS40LTE4LjU5LTE1LjQtMTguNTktMTUuNEwyNC4xLDY0LjE2eiBNMCw0NC42OEMwLDc1LjgsMCw3NS44LDAsNzUuOCAgICAgYzE4LjU5LTE1LjQsMTguNTktMTUuNCwxOC41OS0xNS40TDAsNDQuNjh6IE0yOC42Nyw2MC40YzE4LjU4LDE1LjQsMTguNTgsMTUuNCwxOC41OCwxNS40YzAtMzEuMTIsMC0zMS4xMiwwLTMxLjEyTDI4LjY3LDYwLjR6Ii8+JiN4YTsJCTwvZz4mI3hhOwkJPGcgaWQ9InNoYXBlODE0Ny00Ij4mI3hhOwkJCTx0aXRsZSBpZD0idGl0bGU5ODIiPlNlcnZlci42MzwvdGl0bGU+JiN4YTsJCQk8cGF0aCBpZD0icGF0aDk4NCIgaW5rc2NhcGU6Y29ubmVjdG9yLWN1cnZhdHVyZT0iMCIgc3R5bGU9ImZpbGw6IzNGNTc2NTsiIGQ9Ik0xLjg2LDQ2LjN2MjQuMDdsMjIuNDQsNC4xMXYtMjYuOUwxLjg2LDQ2LjN6ICAgICAgTTEuODYsMzkuNTh2NC42N2wyMi41NCwxLjEzdi01LjQ1TDEuODYsMzkuNTh6IE0yNC40LDMyLjQ5bC0yMi40OSwwLjN2NC42N2wyMi40OSwwLjQ5VjMyLjQ5eiBNMjQuNTEsMjQuOTJsLTIyLjYsMS4xNHY0Ljc0ICAgICBsMjIuNi0wLjQzVjI0LjkyeiBNMjQuNTcsMTcuMzVMMi4wMywxOS4yNnY0Ljg5bDIyLjU0LTEuMzVWMTcuMzV6IE0yNC41Nyw5LjkybC0yMi41LDIuNjJ2NC45NWwyMi41LTIuMDZWOS45MnogTTI0LjYyLDIuNDEgICAgIEwyLjEzLDUuODl2NC43NEwyNC42Miw3LjhWMi40MXogTTI2LjkxLDBsMTMuNiw1LjY3bC0wLjU0LDY0LjdsLTEzLjgzLDYuMzdMMCw3MS42NVY0LjM5TDI2LjkxLDB6Ii8+JiN4YTsJCTwvZz4mI3hhOwk8L2c+JiN4YTs8L2c+JiN4YTs8L3N2Zz4=;" vertex="1" parent="1">
          <mxGeometry x="1003" y="873.0000000000036" width="87" height="77" as="geometry" />
        </mxCell>
      </root>
    </mxGraphModel>
  </diagram>
</mxfile>
